<?xml version="1.0" encoding="UTF-8" standalone="no"?>
<!-- Generator: Adobe Illustrator 27.4.0, SVG Export Plug-In . SVG Version: 6.00 Build 0)  -->

<svg
   version="1.1"
   id="Layer_1"
   x="0px"
   y="0px"
   viewBox="0 0 792 612"
   style="enable-background:new 0 0 792 612;"
   xml:space="preserve"
   sodipodi:docname="ec-logo-final.svg"
   inkscape:version="1.4 (e7c3feb100, 2024-10-09)"
   xmlns:inkscape="http://www.inkscape.org/namespaces/inkscape"
   xmlns:sodipodi="http://sodipodi.sourceforge.net/DTD/sodipodi-0.dtd"
   xmlns="http://www.w3.org/2000/svg"
   xmlns:svg="http://www.w3.org/2000/svg"><defs
   id="defs30">
	
	

		
		
		
		
		
	</defs><sodipodi:namedview
   id="namedview30"
   pagecolor="#ffffff"
   bordercolor="#000000"
   borderopacity="0.25"
   inkscape:showpageshadow="2"
   inkscape:pageopacity="0.0"
   inkscape:pagecheckerboard="0"
   inkscape:deskcolor="#d1d1d1"
   inkscape:zoom="1.3071895"
   inkscape:cx="395.8875"
   inkscape:cy="306"
   inkscape:window-width="1920"
   inkscape:window-height="1011"
   inkscape:window-x="0"
   inkscape:window-y="0"
   inkscape:window-maximized="1"
   inkscape:current-layer="Layer_1" />
<style
   type="text/css"
   id="style1">
	.st0{fill:#D1D3D4;}
	.st1{fill:#785FA9;}
	.st2{fill:#AB9BCB;}
	.st3{fill:#FFFFFF;}
</style>
<path
   class="st0"
   d="m 278.38962,163.38987 h -0.2 c -0.1,0 0,0.20575 -0.1,0.20575 l 0.3,67.59113 c 0.1,0 0.2,0 0.3,0 5.4,0 17.3,-9.0533 21.6,-16.97494 8.7,-16.15191 7.4,-37.03623 7.4,-37.03623 l -12.3,-6.06983 c 0,0 -1,-5.34968 -1,-9.67057 0,-3.70363 -11.1,1.95469 -16,1.95469 z"
   id="path1"
   style="stroke-width:1.01429" />
<path
   class="st1"
   d="M278.4,232.5c-5.9,0-18.7-8.2-23.3-16.3c-8.8-15.3-6.9-36.5-6.8-37.4l0-0.5l0.3-0.4c0.5-0.8,13.3-19.8,46-18.5  l1.9,0.1v10.4c10.2,2.9,13.8,7.3,14,7.5l0.3,0.4l0.1,0.5c0.1,0.8,2.4,19.1-7.5,37.4C297.8,225.8,284.7,232.5,278.4,232.5z   M252.1,179.7c-0.2,3.3-1.1,21.6,6.4,34.6c4.1,7.1,15.7,14.3,19.9,14.3c4.6,0,16.6-5.7,21.5-14.7c8.4-15.4,7.5-31.2,7.2-34.4  c-1.1-1-4.8-4.1-13-6.2l-1.5-0.4v-9.6C265.8,163,254,177.2,252.1,179.7z"
   id="path2" />
<circle
   class="st1"
   cx="265.6"
   cy="192.8"
   r="3.6"
   id="circle2" />
<circle
   class="st1"
   cx="291.4"
   cy="192.8"
   r="3.6"
   id="circle3" />
<path
   class="st1"
   d="M286.8,211.8c-0.2-0.2-0.7-0.4-1.5,0.1c-0.6,0.5-1.1,0.7-2.9,0.6c-0.4,0-1.1-0.3-2.3-1.4c0,0,0,0,0,0v-3.7  c1.6-0.6,3.5-1.9,3.5-3.4v-0.5c0-2.1-1.5-3.9-3.4-3.9h-3.7c-1.9,0-3.4,1.7-3.4,3.9v0.5c0,1.5,1.9,2.7,3.5,3.4v3.7c0,0,0,0,0,0  c-1.2,1.1-1.9,1.4-2.3,1.4c-1.8,0.2-2.3-0.1-2.9-0.6c-0.7-0.6-1.2-0.3-1.5-0.1c-0.5,0.4-0.7,1.2-0.5,1.6c0.3,0.5,0.8,1.1,1.3,1.4  c1.1,0.5,2.3,0.8,3.6,0.7c1.9-0.1,3.2-1.1,3.8-1.4c0.1-0.1,0.2-0.1,0.2-0.1l0,0l0,0c0,0,0.1,0.1,0.2,0.1c0.6,0.4,1.9,1.3,3.8,1.4  c0.2,0,0.4,0,0.6,0c1.1,0,2.1-0.2,3-0.7c0.6-0.3,1.1-0.8,1.3-1.4C287.4,213,287.2,212.1,286.8,211.8z"
   id="path3" />
<rect
   x="372.9"
   y="144.9"
   class="st1"
   width="114.1"
   height="110.5"
   id="rect3" />
<path
   class="st2"
   d="m 429.74226,162.3296 h -0.20522 c -0.10261,0 0,0.20193 -0.10261,0.20193 l 0.30783,66.33145 c 0.10261,0 0.20522,0 0.30782,0 5.5409,0 17.64878,-6.15863 21.95837,-13.93263 8.92699,-15.8509 7.79829,-39.07196 7.79829,-39.07196 l -12.62093,-5.9567 c 0,0 -1.02609,-5.24998 -1.02609,-9.49035 -0.10261,-3.53364 -11.38961,1.91826 -16.41746,1.91826 z"
   id="path4"
   style="stroke-width:1.01781" />
<g
   id="g8">
	<path
   class="st3"
   d="M429.7,231.5c-5.9,0-18.7-8.2-23.3-16.3c-8.8-15.3-6.9-36.5-6.8-37.4l0-0.5l0.3-0.4c0.5-0.8,13.3-19.8,46-18.5   l1.9,0.1v10.4c10.2,2.9,13.8,7.3,14,7.5l0.3,0.4l0.1,0.5c0.1,0.8,2.4,19.1-7.5,37.4C449.2,224.9,436,231.5,429.7,231.5z    M403.5,178.8c-0.2,3.3-1.1,21.6,6.4,34.6c4.1,7.1,15.7,14.3,19.9,14.3c4.6,0,16.6-5.7,21.5-14.7c8.3-15.4,7.4-31.2,7.2-34.4   c-1.1-1-4.8-4.1-13-6.2l-1.5-0.4v-9.6c-14.9-0.2-25,4.2-30.9,8C407.4,173.9,404.3,177.6,403.5,178.8z"
   id="path5" />
	<path
   class="st3"
   d="M417,188.2c-2,0-3.6,1.6-3.6,3.6s1.6,3.6,3.6,3.6s3.6-1.6,3.6-3.6S419,188.2,417,188.2z"
   id="path6" />
	<path
   class="st3"
   d="M442.7,188.2c-2,0-3.6,1.6-3.6,3.6s1.6,3.6,3.6,3.6s3.6-1.6,3.6-3.6S444.7,188.2,442.7,188.2z"
   id="path7" />
	<path
   class="st3"
   d="M438.1,210.8c-0.2-0.2-0.7-0.4-1.5,0.1c-0.6,0.5-1.1,0.7-2.9,0.6c-0.4,0-1.1-0.3-2.3-1.4c0,0,0,0,0,0v-3.7   c1.6-0.6,3.5-1.9,3.5-3.4v-0.5c0-2.1-1.5-3.9-3.4-3.9h-3.7c-1.9,0-3.4,1.7-3.4,3.9v0.5c0,1.5,1.9,2.7,3.5,3.4v3.7c0,0,0,0,0,0   c-1.2,1.1-1.9,1.4-2.3,1.4c-1.8,0.2-2.3-0.1-2.9-0.6c-0.7-0.6-1.2-0.3-1.5-0.1c-0.5,0.4-0.7,1.2-0.5,1.6c0.2,0.5,0.8,1.1,1.3,1.4   c1.1,0.5,2.2,0.8,3.6,0.7c1.9-0.1,3.2-1.1,3.8-1.4c0.1-0.1,0.2-0.1,0.2-0.1l0,0l0,0c0,0,0.1,0.1,0.2,0.1c0.6,0.4,1.9,1.3,3.8,1.4   c0.2,0,0.4,0,0.6,0c1.1,0,2.1-0.2,3-0.7c0.6-0.3,1.1-0.8,1.3-1.4C438.8,212,438.6,211.1,438.1,210.8z"
   id="path8" />
</g>
<g
   id="g26">
		<path
   class="st1"
   d="m 344.5,400.5 1.8,2.9 c -1.4,1.3 -3,2.1 -4.4,2.6 -1,0.3 -2.2,0.4 -3.1,0.4 -1.8,0 -3.4,-0.4 -4.8,-1.1 -1.4,-0.7 -2.4,-1.7 -3.1,-3 -0.7,-1.3 -1.1,-2.7 -1.1,-4.4 0,-1.6 0.4,-3 1.2,-4.3 0.8,-1.3 1.9,-2.3 3.3,-3.1 1.4,-0.8 2.9,-1.1 4.5,-1.1 2.2,0 3.9,0.6 5.4,1.9 1.4,1.3 2.4,3 2.9,5.4 l -12.2,4.1 c 0.4,0.7 1,1.2 1.7,1.5 0.7,0.4 1.5,0.5 2.3,0.5 2.6,0 4.5,-1.1 5.6,-2.3 z m -9.2,-6.4 c -0.8,0.9 -1.3,2.1 -1.3,3.6 0,0.3 0,0.5 0,0.6 l 8.3,-3 c -0.3,-0.8 -0.8,-1.4 -1.4,-1.9 -0.6,-0.5 -1.4,-0.8 -2.4,-0.8 -1.3,0.1 -2.3,0.6 -3.2,1.5 z"
   id="path9" />
		<path
   class="st1"
   d="m 364.3,390.8 c 1,0.9 1.5,2 1.5,3.4 V 406 h -4.2 v -10.3 c 0,-0.8 -0.3,-1.5 -0.7,-2 -0.4,-0.5 -1.1,-0.7 -2,-0.8 -1.3,0 -2.4,0.6 -3.2,1.7 -0.8,1.1 -1.3,2.5 -1.3,4.3 v 7.1 h -4.2 v -15.9 h 3.8 l 0.3,2.8 c 0.6,-1.1 1.4,-2 2.5,-2.6 1.1,-0.6 2.3,-0.9 3.8,-0.9 1.5,0 2.7,0.5 3.7,1.4 z"
   id="path10" />
		<path
   class="st1"
   d="m 376.4,383.1 v 7 h 4.1 v 3.3 h -4.1 V 406 h -4.2 v -12.6 h -2.7 v -3.3 h 2.7 v -7 z"
   id="path11" />
		<path
   class="st1"
   d="m 409.6,391.5 c 0.8,-0.7 1.6,-1.2 2.4,-1.6 0.8,-0.4 1.5,-0.5 2,-0.5 l -0.2,4.2 c -1.2,-0.1 -2.2,0.1 -3.1,0.6 -0.9,0.5 -1.6,1.2 -2.1,2.1 -0.5,0.9 -0.8,1.8 -0.8,2.8 v 6.8 h -4.2 V 390 h 3.8 l 0.3,3.7 c 0.5,-0.8 1.1,-1.5 1.9,-2.2 z"
   id="path12" />
		<path
   class="st1"
   d="m 444.9,391.5 c 0.8,-0.7 1.6,-1.2 2.4,-1.6 0.8,-0.4 1.5,-0.5 2,-0.5 l -0.2,4.2 c -1.2,-0.1 -2.2,0.1 -3.1,0.6 -0.9,0.5 -1.6,1.2 -2.1,2.1 -0.5,0.9 -0.8,1.8 -0.8,2.8 v 6.8 h -4.2 V 390 h 3.8 l 0.3,3.7 c 0.6,-0.8 1.2,-1.5 1.9,-2.2 z"
   id="path13" />
		<path
   class="st1"
   d="m 454.3,382.8 c 0.5,-0.4 1.1,-0.7 1.7,-0.7 0.6,0 1.1,0.2 1.6,0.7 0.5,0.4 0.7,1 0.7,1.6 0,0.6 -0.2,1.2 -0.7,1.6 -0.5,0.4 -1,0.6 -1.6,0.6 -0.6,0 -1.2,-0.2 -1.7,-0.6 -0.5,-0.4 -0.8,-1 -0.8,-1.6 0,-0.6 0.3,-1.1 0.8,-1.6 z m 3.6,7.3 V 406 h -4.2 v -15.9 z"
   id="path14" />
		<path
   class="st1"
   d="m 465,405.7 c -1.1,-0.4 -2,-1.1 -2.7,-1.9 l 1.8,-2.4 c 1.3,1.3 2.7,2 4.1,2 0.8,0 1.4,-0.1 1.9,-0.4 0.5,-0.3 0.7,-0.7 0.7,-1.3 0,-0.6 -0.3,-1.1 -0.8,-1.4 -0.5,-0.3 -1.1,-0.5 -1.7,-0.7 -0.6,-0.2 -1,-0.3 -1.2,-0.4 -1.4,-0.4 -2.4,-1 -3.1,-1.9 -0.7,-0.8 -1,-1.8 -1,-2.9 0,-0.9 0.2,-1.7 0.7,-2.5 0.4,-0.8 1.1,-1.4 2,-1.9 0.9,-0.5 2,-0.7 3.2,-0.7 1.2,0 2.2,0.1 3.1,0.4 0.9,0.3 1.7,0.7 2.5,1.3 l -1.6,2.5 c -0.5,-0.4 -1,-0.8 -1.6,-1 -0.6,-0.3 -1.2,-0.4 -1.7,-0.4 -0.7,0 -1.2,0.2 -1.6,0.5 -0.4,0.3 -0.6,0.7 -0.6,1.2 0,0.6 0.2,1 0.6,1.3 0.5,0.3 1.2,0.6 2.2,0.9 0.4,0.1 0.7,0.2 0.8,0.3 1.3,0.4 2.2,1 2.9,1.7 0.7,0.7 1.1,1.6 1.1,2.8 0,1.6 -0.6,2.8 -1.7,3.9 -1.1,1 -2.7,1.6 -4.8,1.6 -1.3,0 -2.4,-0.2 -3.5,-0.6 z"
   id="path15" />
		<path
   class="st1"
   d="m 334.2,432.2 c -1,0.3 -2,0.5 -3.1,0.5 -1.8,0 -3.3,-0.3 -4.6,-1 -1.3,-0.7 -2.4,-1.6 -3.1,-2.9 -0.7,-1.3 -1.1,-2.7 -1.1,-4.5 0,-1.7 0.4,-3.1 1.2,-4.4 0.8,-1.3 1.8,-2.2 3.1,-2.9 1.3,-0.7 2.7,-1 4.2,-1 2.5,0 4.6,0.7 6.2,2 l -2.1,2.7 c -0.5,-0.4 -1,-0.7 -1.7,-1 -0.6,-0.3 -1.3,-0.4 -2,-0.4 -1.3,0 -2.4,0.5 -3.2,1.4 -0.9,0.9 -1.3,2.1 -1.3,3.5 0,1.4 0.5,2.6 1.4,3.5 0.9,0.9 2.1,1.4 3.6,1.4 1.3,0 2.3,-0.4 3.2,-1.1 l 2.1,2.6 c -1,0.8 -1.8,1.2 -2.8,1.6 z"
   id="path16" />
		<path
   class="st1"
   d="m 339.7,419.8 c 0.8,-1.3 1.8,-2.3 3.2,-3.1 1.4,-0.7 2.9,-1.1 4.6,-1.1 1.7,0 3.3,0.4 4.6,1.1 1.3,0.7 2.4,1.8 3.1,3 0.7,1.3 1.1,2.7 1.1,4.3 0,1.6 -0.4,3 -1.1,4.3 -0.7,1.3 -1.8,2.3 -3.1,3.1 -1.3,0.8 -2.9,1.1 -4.6,1.1 -1.7,0 -3.2,-0.3 -4.6,-1 -1.4,-0.7 -2.4,-1.7 -3.2,-3 -0.8,-1.3 -1.1,-2.8 -1.1,-4.5 -0.1,-1.4 0.3,-2.9 1.1,-4.2 z m 4.4,8 c 0.9,1 2,1.4 3.3,1.4 1.4,0 2.5,-0.5 3.3,-1.4 0.9,-1 1.3,-2.2 1.3,-3.6 0,-1.5 -0.4,-2.7 -1.3,-3.6 -0.9,-1 -2,-1.4 -3.3,-1.4 -1.3,0 -2.4,0.5 -3.3,1.5 -0.9,1 -1.3,2.2 -1.3,3.6 0,1.3 0.4,2.5 1.3,3.5 z"
   id="path17" />
		<path
   class="st1"
   d="m 373.8,417 c 1,0.9 1.5,2 1.5,3.4 v 11.8 h -4.2 V 422 c 0,-0.8 -0.3,-1.5 -0.7,-2 -0.4,-0.5 -1.1,-0.7 -2,-0.8 -1.3,0 -2.4,0.6 -3.2,1.7 -0.8,1.1 -1.3,2.5 -1.3,4.3 v 7.1 h -4.2 v -15.9 h 3.8 l 0.3,2.8 c 0.6,-1.1 1.4,-2 2.5,-2.6 1.1,-0.6 2.3,-0.9 3.8,-0.9 1.4,0 2.7,0.4 3.7,1.3 z"
   id="path18" />
		<path
   class="st1"
   d="m 434.6,393.5 c -0.7,-1.3 -1.6,-2.3 -2.8,-3 -1.2,-0.7 -2.5,-1.1 -4,-1.1 -1.3,0 -2.5,0.3 -3.5,0.8 -1.1,0.5 -2,1.2 -2.9,2 l -0.4,-2.4 h -3.6 v 22.5 c 0.1,0 0.2,0 0.3,0 1.6,0 2.9,0.4 3.9,1 V 404 c 0.6,0.7 1.4,1.3 2.4,1.7 1,0.4 2,0.6 3,0.6 1.7,0 3.1,-0.3 4.5,-1 1.3,-0.7 2.3,-1.7 3.1,-2.9 0.7,-1.3 1.1,-2.8 1.1,-4.5 -0.1,-1.6 -0.4,-3.1 -1.1,-4.4 z m -4,7.1 c -0.5,0.8 -1.1,1.3 -1.9,1.8 -0.8,0.4 -1.6,0.7 -2.6,0.7 -1.2,0 -2.1,-0.3 -3,-1 -0.8,-0.7 -1.4,-1.5 -1.6,-2.5 v -3.2 c 0.4,-1.1 1,-1.9 1.8,-2.5 0.8,-0.6 1.9,-0.9 3.1,-0.9 1.4,0 2.5,0.5 3.5,1.4 0.9,1 1.4,2.2 1.4,3.7 0,0.9 -0.2,1.8 -0.7,2.5 z"
   id="path19" />
		<path
   class="st1"
   d="m 386.8,409.4 v 7 h 4.1 v 3.3 h -4.1 v 12.6 h -4.2 v -12.6 h -2.7 v -3.3 h 2.7 v -7 z"
   id="path20" />
		<path
   class="st1"
   d="m 401,417.8 c 0.8,-0.7 1.6,-1.2 2.4,-1.6 0.8,-0.4 1.5,-0.5 2,-0.5 l -0.2,4.2 c -1.2,-0.1 -2.2,0.1 -3.1,0.6 -0.9,0.5 -1.6,1.2 -2.1,2.1 -0.5,0.9 -0.8,1.8 -0.8,2.8 v 6.8 H 395 v -15.9 h 3.8 l 0.3,3.7 c 0.5,-0.8 1.1,-1.6 1.9,-2.2 z"
   id="path21" />
		<path
   class="st1"
   d="m 426.3,416.4 v 15.9 h -4.2 V 430 c -0.6,0.7 -1.4,1.3 -2.3,1.9 -0.9,0.6 -2.1,0.8 -3.4,0.8 -1.5,0 -2.9,-0.3 -4.1,-1 -1.2,-0.6 -2.2,-1.6 -2.9,-2.8 -0.7,-1.3 -1.1,-2.8 -1.1,-4.5 0,-1.7 0.4,-3.2 1.1,-4.6 0.7,-1.3 1.7,-2.3 2.9,-3 1.2,-0.7 2.5,-1.1 4,-1.1 2.6,0 4.5,1 5.8,2.9 l 0.3,-2.1 h 3.9 z m -5.9,11.9 c 0.8,-0.6 1.3,-1.4 1.7,-2.5 v -3.5 c -0.3,-1 -0.9,-1.8 -1.7,-2.4 -0.9,-0.6 -1.9,-0.9 -3,-0.9 -1.3,0 -2.5,0.5 -3.4,1.4 -0.9,0.9 -1.4,2.1 -1.4,3.6 0,1 0.2,1.8 0.7,2.6 0.5,0.8 1.1,1.4 1.8,1.8 0.8,0.5 1.6,0.7 2.4,0.7 1.2,0.1 2.1,-0.2 2.9,-0.8 z"
   id="path22" />
		<path
   class="st1"
   d="m 442.3,432.2 c -1,0.3 -2,0.5 -3.1,0.5 -1.8,0 -3.3,-0.3 -4.6,-1 -1.3,-0.7 -2.4,-1.6 -3.1,-2.9 -0.7,-1.3 -1.1,-2.7 -1.1,-4.5 0,-1.7 0.4,-3.1 1.2,-4.4 0.8,-1.3 1.8,-2.2 3.1,-2.9 1.3,-0.7 2.7,-1 4.2,-1 2.5,0 4.6,0.7 6.2,2 l -2.1,2.7 c -0.5,-0.4 -1,-0.7 -1.7,-1 -0.6,-0.3 -1.3,-0.4 -2,-0.4 -1.3,0 -2.4,0.5 -3.2,1.4 -0.9,0.9 -1.3,2.1 -1.3,3.5 0,1.4 0.5,2.6 1.4,3.5 0.9,0.9 2.1,1.4 3.6,1.4 1.3,0 2.3,-0.4 3.2,-1.1 l 2.1,2.6 c -0.9,0.8 -1.7,1.2 -2.8,1.6 z"
   id="path23" />
		<path
   class="st1"
   d="m 454.2,409.4 v 7 h 4.1 v 3.3 h -4.1 v 12.6 H 450 v -12.6 h -2.7 v -3.3 h 2.7 v -7 z"
   id="path24" />
		<path
   class="st1"
   d="m 397.1,400.3 1.8,2.9 c -1.4,1.3 -3,2.1 -4.4,2.6 -1,0.3 -2.2,0.4 -3.1,0.4 -1.8,0 -3.4,-0.4 -4.8,-1.1 -1.3,-0.7 -2.4,-1.7 -3.1,-3 -0.7,-1.3 -1.1,-2.7 -1.1,-4.4 0,-1.6 0.4,-3 1.2,-4.3 0.8,-1.3 1.9,-2.3 3.3,-3.1 1.4,-0.8 2.9,-1.1 4.5,-1.1 2.2,0 3.9,0.6 5.4,1.9 1.4,1.3 2.4,3 2.9,5.4 l -12.2,4.1 c 0.4,0.7 1,1.2 1.7,1.5 0.7,0.4 1.5,0.5 2.3,0.5 2.6,0 4.4,-1.1 5.6,-2.3 z m -9.3,-6.4 c -0.8,0.9 -1.3,2.1 -1.3,3.6 0,0.3 0,0.5 0,0.6 l 8.3,-3 c -0.3,-0.8 -0.8,-1.4 -1.4,-1.9 -0.6,-0.5 -1.4,-0.8 -2.4,-0.8 -1.2,0.1 -2.3,0.6 -3.2,1.5 z"
   id="path25" />
		<path
   class="st1"
   d="m 492.4,400.3 1.8,2.9 c -1.4,1.3 -3,2.1 -4.4,2.6 -1,0.3 -2.2,0.4 -3.1,0.4 -1.8,0 -3.4,-0.4 -4.8,-1.1 -1.3,-0.7 -2.4,-1.7 -3.1,-3 -0.7,-1.3 -1.1,-2.7 -1.1,-4.4 0,-1.6 0.4,-3 1.2,-4.3 0.8,-1.3 1.9,-2.3 3.3,-3.1 1.4,-0.8 2.9,-1.1 4.5,-1.1 2.2,0 3.9,0.6 5.4,1.9 1.4,1.3 2.4,3 2.9,5.4 l -12.2,4.1 c 0.4,0.7 1,1.2 1.7,1.5 0.7,0.4 1.5,0.5 2.3,0.5 2.6,0 4.5,-1.1 5.6,-2.3 z m -9.2,-6.4 c -0.8,0.9 -1.3,2.1 -1.3,3.6 0,0.3 0,0.5 0,0.6 l 8.3,-3 c -0.3,-0.8 -0.8,-1.4 -1.4,-1.9 -0.6,-0.5 -1.4,-0.8 -2.4,-0.8 -1.3,0.1 -2.4,0.6 -3.2,1.5 z"
   id="path26" />
	</g><path
   class="st0"
   d="m 285.88962,365.67886 h -0.2 c -0.1,0 0,0.20512 -0.1,0.20512 l 0.3,67.38202 c 0.1,0 0.2,0 0.3,0 5.4,0 17.3,-9.02529 21.6,-16.92242 8.7,-16.10195 7.4,-36.92166 7.4,-36.92166 l -12.3,-6.05105 c 0,0 -1,-5.33313 -1,-9.64066 -0.1,-3.5896 -11.1,1.94865 -16,1.94865 z"
   id="path27"
   style="stroke-width:1.01272" /><path
   class="st1"
   d="m 285.8,434.9 c -5.9,0 -18.7,-8.2 -23.3,-16.3 -8.8,-15.3 -6.9,-36.5 -6.8,-37.4 v -0.5 l 0.3,-0.4 c 0.5,-0.8 13.3,-19.8 46,-18.5 l 1.9,0.1 v 10.4 c 10.2,2.9 13.8,7.3 14,7.5 l 0.3,0.4 0.1,0.5 c 0.1,0.8 2.4,19.1 -7.5,37.4 -5.6,10.1 -18.7,16.8 -25,16.8 z m -26.3,-52.8 c -0.2,3.3 -1.1,21.6 6.4,34.6 4.1,7.1 15.7,14.3 19.9,14.3 4.6,0 16.6,-5.7 21.5,-14.7 8.4,-15.4 7.5,-31.2 7.2,-34.4 -1.1,-1 -4.8,-4.1 -13,-6.2 l -1.5,-0.4 v -9.6 c -26.7,-0.4 -38.6,13.9 -40.5,16.4 z"
   id="path28" /><circle
   class="st1"
   cx="273"
   cy="395.10001"
   r="3.5999999"
   id="circle28" /><circle
   class="st1"
   cx="298.79999"
   cy="395.10001"
   r="3.5999999"
   id="circle29" /><path
   class="st1"
   d="m 294.2,414.1 c -0.2,-0.2 -0.7,-0.4 -1.5,0.1 -0.6,0.5 -1.1,0.7 -2.9,0.6 -0.4,0 -1.1,-0.3 -2.3,-1.4 0,0 0,0 0,0 v -3.7 c 1.6,-0.6 3.5,-1.9 3.5,-3.4 v -0.5 c 0,-2.1 -1.5,-3.9 -3.4,-3.9 H 284 c -1.9,0 -3.4,1.7 -3.4,3.9 v 0.5 c 0,1.5 1.9,2.7 3.5,3.4 v 3.7 c 0,0 0,0 0,0 -1.2,1.1 -1.9,1.4 -2.3,1.4 -1.8,0.2 -2.3,-0.1 -2.9,-0.6 -0.7,-0.6 -1.2,-0.3 -1.5,-0.1 -0.5,0.4 -0.7,1.2 -0.5,1.6 0.3,0.5 0.8,1.1 1.3,1.4 1.1,0.5 2.3,0.8 3.6,0.7 1.9,-0.1 3.2,-1.1 3.8,-1.4 0.1,-0.1 0.2,-0.1 0.2,-0.1 v 0 0 c 0,0 0.1,0.1 0.2,0.1 0.6,0.4 1.9,1.3 3.8,1.4 0.2,0 0.4,0 0.6,0 1.1,0 2.1,-0.2 3,-0.7 0.6,-0.3 1.1,-0.8 1.3,-1.4 0.2,-0.4 0,-1.2 -0.5,-1.6 z"
   id="path29" />
</svg>
