<?xml version="1.0" encoding="UTF-8" standalone="no"?>
<!-- Generator: Adobe Illustrator 27.4.0, SVG Export Plug-In . SVG Version: 6.00 Build 0)  -->

<svg
   version="1.1"
   id="Layer_1"
   x="0px"
   y="0px"
   viewBox="0 0 792 612"
   style="enable-background:new 0 0 792 612;"
   xml:space="preserve"
   sodipodi:docname="ec-logo-final.svg"
   inkscape:version="1.3.2 (091e20ef0f, 2023-11-25)"
   xmlns:inkscape="http://www.inkscape.org/namespaces/inkscape"
   xmlns:sodipodi="http://sodipodi.sourceforge.net/DTD/sodipodi-0.dtd"
   xmlns="http://www.w3.org/2000/svg"
   xmlns:svg="http://www.w3.org/2000/svg"><defs
   id="defs30"><rect
   x="583.83299"
   y="418.11281"
   width="100.30749"
   height="43.372698"
   id="rect42" /><rect
   x="356.8238"
   y="484.46535"
   width="420.27188"
   height="89.537074"
   id="rect32" /><rect
   x="352.86813"
   y="494.44955"
   width="168.99788"
   height="53.238179"
   id="rect31" />
		
		
		
		
		
		
		
		
		
		
		
		
		
		
		
		
		
		
	
		
		
		
		
		
	</defs><sodipodi:namedview
   id="namedview30"
   pagecolor="#ffffff"
   bordercolor="#666666"
   borderopacity="1.0"
   inkscape:showpageshadow="2"
   inkscape:pageopacity="0.0"
   inkscape:pagecheckerboard="0"
   inkscape:deskcolor="#d1d1d1"
   inkscape:zoom="0.82"
   inkscape:cx="304.87805"
   inkscape:cy="539.63415"
   inkscape:window-width="1920"
   inkscape:window-height="1011"
   inkscape:window-x="0"
   inkscape:window-y="0"
   inkscape:window-maximized="1"
   inkscape:current-layer="g30" />
<style
   type="text/css"
   id="style1">
	.st0{fill:#D1D3D4;}
	.st1{fill:#785FA9;}
	.st2{fill:#AB9BCB;}
	.st3{fill:#FFFFFF;}
</style>
<path
   class="st0"
   d="M278.5,163.3h-0.2c-0.1,0,0,0.2-0.1,0.2l0.3,65.7c0.1,0,0.2,0,0.3,0c5.4,0,17.3-8.8,21.6-16.5  c8.7-15.7,7.4-36,7.4-36l-12.3-5.9c0,0-1-5.2-1-9.4C294.5,157.8,283.4,163.3,278.5,163.3z"
   id="path1" />
<path
   class="st1"
   d="M278.4,232.5c-5.9,0-18.7-8.2-23.3-16.3c-8.8-15.3-6.9-36.5-6.8-37.4l0-0.5l0.3-0.4c0.5-0.8,13.3-19.8,46-18.5  l1.9,0.1v10.4c10.2,2.9,13.8,7.3,14,7.5l0.3,0.4l0.1,0.5c0.1,0.8,2.4,19.1-7.5,37.4C297.8,225.8,284.7,232.5,278.4,232.5z   M252.1,179.7c-0.2,3.3-1.1,21.6,6.4,34.6c4.1,7.1,15.7,14.3,19.9,14.3c4.6,0,16.6-5.7,21.5-14.7c8.4-15.4,7.5-31.2,7.2-34.4  c-1.1-1-4.8-4.1-13-6.2l-1.5-0.4v-9.6C265.8,163,254,177.2,252.1,179.7z"
   id="path2" />
<circle
   class="st1"
   cx="265.6"
   cy="192.8"
   r="3.6"
   id="circle2" />
<circle
   class="st1"
   cx="291.4"
   cy="192.8"
   r="3.6"
   id="circle3" />
<path
   class="st1"
   d="M286.8,211.8c-0.2-0.2-0.7-0.4-1.5,0.1c-0.6,0.5-1.1,0.7-2.9,0.6c-0.4,0-1.1-0.3-2.3-1.4c0,0,0,0,0,0v-3.7  c1.6-0.6,3.5-1.9,3.5-3.4v-0.5c0-2.1-1.5-3.9-3.4-3.9h-3.7c-1.9,0-3.4,1.7-3.4,3.9v0.5c0,1.5,1.9,2.7,3.5,3.4v3.7c0,0,0,0,0,0  c-1.2,1.1-1.9,1.4-2.3,1.4c-1.8,0.2-2.3-0.1-2.9-0.6c-0.7-0.6-1.2-0.3-1.5-0.1c-0.5,0.4-0.7,1.2-0.5,1.6c0.3,0.5,0.8,1.1,1.3,1.4  c1.1,0.5,2.3,0.8,3.6,0.7c1.9-0.1,3.2-1.1,3.8-1.4c0.1-0.1,0.2-0.1,0.2-0.1l0,0l0,0c0,0,0.1,0.1,0.2,0.1c0.6,0.4,1.9,1.3,3.8,1.4  c0.2,0,0.4,0,0.6,0c1.1,0,2.1-0.2,3-0.7c0.6-0.3,1.1-0.8,1.3-1.4C287.4,213,287.2,212.1,286.8,211.8z"
   id="path3" />
<rect
   x="372.9"
   y="144.9"
   class="st1"
   width="114.1"
   height="110.5"
   id="rect3" />
<path
   class="st2"
   d="M429.9,162.3h-0.2c-0.1,0,0,0.2-0.1,0.2l0.3,65.7c0.1,0,0.2,0,0.3,0c5.4,0,17.2-6.1,21.4-13.8  c8.7-15.7,7.6-38.7,7.6-38.7l-12.3-5.9c0,0-1-5.2-1-9.4C445.8,156.9,434.8,162.3,429.9,162.3z"
   id="path4" />
<g
   id="g8">
	<path
   class="st3"
   d="M429.7,231.5c-5.9,0-18.7-8.2-23.3-16.3c-8.8-15.3-6.9-36.5-6.8-37.4l0-0.5l0.3-0.4c0.5-0.8,13.3-19.8,46-18.5   l1.9,0.1v10.4c10.2,2.9,13.8,7.3,14,7.5l0.3,0.4l0.1,0.5c0.1,0.8,2.4,19.1-7.5,37.4C449.2,224.9,436,231.5,429.7,231.5z    M403.5,178.8c-0.2,3.3-1.1,21.6,6.4,34.6c4.1,7.1,15.7,14.3,19.9,14.3c4.6,0,16.6-5.7,21.5-14.7c8.3-15.4,7.4-31.2,7.2-34.4   c-1.1-1-4.8-4.1-13-6.2l-1.5-0.4v-9.6c-14.9-0.2-25,4.2-30.9,8C407.4,173.9,404.3,177.6,403.5,178.8z"
   id="path5" />
	<path
   class="st3"
   d="M417,188.2c-2,0-3.6,1.6-3.6,3.6s1.6,3.6,3.6,3.6s3.6-1.6,3.6-3.6S419,188.2,417,188.2z"
   id="path6" />
	<path
   class="st3"
   d="M442.7,188.2c-2,0-3.6,1.6-3.6,3.6s1.6,3.6,3.6,3.6s3.6-1.6,3.6-3.6S444.7,188.2,442.7,188.2z"
   id="path7" />
	<path
   class="st3"
   d="M438.1,210.8c-0.2-0.2-0.7-0.4-1.5,0.1c-0.6,0.5-1.1,0.7-2.9,0.6c-0.4,0-1.1-0.3-2.3-1.4c0,0,0,0,0,0v-3.7   c1.6-0.6,3.5-1.9,3.5-3.4v-0.5c0-2.1-1.5-3.9-3.4-3.9h-3.7c-1.9,0-3.4,1.7-3.4,3.9v0.5c0,1.5,1.9,2.7,3.5,3.4v3.7c0,0,0,0,0,0   c-1.2,1.1-1.9,1.4-2.3,1.4c-1.8,0.2-2.3-0.1-2.9-0.6c-0.7-0.6-1.2-0.3-1.5-0.1c-0.5,0.4-0.7,1.2-0.5,1.6c0.2,0.5,0.8,1.1,1.3,1.4   c1.1,0.5,2.2,0.8,3.6,0.7c1.9-0.1,3.2-1.1,3.8-1.4c0.1-0.1,0.2-0.1,0.2-0.1l0,0l0,0c0,0,0.1,0.1,0.2,0.1c0.6,0.4,1.9,1.3,3.8,1.4   c0.2,0,0.4,0,0.6,0c1.1,0,2.1-0.2,3-0.7c0.6-0.3,1.1-0.8,1.3-1.4C438.8,212,438.6,211.1,438.1,210.8z"
   id="path8" />
</g>
<g
   id="g30">
	<g
   id="g26">
		<path
   class="st1"
   d="M344.5,400.5l1.8,2.9c-1.4,1.3-3,2.1-4.4,2.6c-1,0.3-2.2,0.4-3.1,0.4c-1.8,0-3.4-0.4-4.8-1.1s-2.4-1.7-3.1-3    c-0.7-1.3-1.1-2.7-1.1-4.4c0-1.6,0.4-3,1.2-4.3c0.8-1.3,1.9-2.3,3.3-3.1c1.4-0.8,2.9-1.1,4.5-1.1c2.2,0,3.9,0.6,5.4,1.9    c1.4,1.3,2.4,3,2.9,5.4l-12.2,4.1c0.4,0.7,1,1.2,1.7,1.5c0.7,0.4,1.5,0.5,2.3,0.5C341.5,402.8,343.4,401.7,344.5,400.5z     M335.3,394.1c-0.8,0.9-1.3,2.1-1.3,3.6c0,0.3,0,0.5,0,0.6l8.3-3c-0.3-0.8-0.8-1.4-1.4-1.9c-0.6-0.5-1.4-0.8-2.4-0.8    C337.2,392.7,336.2,393.2,335.3,394.1z"
   id="path9" />
		<path
   class="st1"
   d="M364.3,390.8c1,0.9,1.5,2,1.5,3.4V406h-4.2v-10.3c0-0.8-0.3-1.5-0.7-2c-0.4-0.5-1.1-0.7-2-0.8    c-1.3,0-2.4,0.6-3.2,1.7c-0.8,1.1-1.3,2.5-1.3,4.3v7.1h-4.2v-15.9h3.8l0.3,2.8c0.6-1.1,1.4-2,2.5-2.6c1.1-0.6,2.3-0.9,3.8-0.9    C362.1,389.4,363.3,389.9,364.3,390.8z"
   id="path10" />
		<path
   class="st1"
   d="M376.4,383.1v7h4.1v3.3h-4.1V406h-4.2v-12.6h-2.7v-3.3h2.7v-7H376.4z"
   id="path11" />
		<path
   class="st1"
   d="M409.6,391.5c0.8-0.7,1.6-1.2,2.4-1.6c0.8-0.4,1.5-0.5,2-0.5l-0.2,4.2c-1.2-0.1-2.2,0.1-3.1,0.6    c-0.9,0.5-1.6,1.2-2.1,2.1c-0.5,0.9-0.8,1.8-0.8,2.8v6.8h-4.2v-15.9h3.8l0.3,3.7C408.2,392.9,408.8,392.2,409.6,391.5z"
   id="path12" />
		<path
   class="st1"
   d="M444.9,391.5c0.8-0.7,1.6-1.2,2.4-1.6c0.8-0.4,1.5-0.5,2-0.5l-0.2,4.2c-1.2-0.1-2.2,0.1-3.1,0.6    c-0.9,0.5-1.6,1.2-2.1,2.1c-0.5,0.9-0.8,1.8-0.8,2.8v6.8h-4.2v-15.9h3.8l0.3,3.7C443.6,392.9,444.2,392.2,444.9,391.5z"
   id="path13" />
		<path
   class="st1"
   d="M454.3,382.8c0.5-0.4,1.1-0.7,1.7-0.7c0.6,0,1.1,0.2,1.6,0.7c0.5,0.4,0.7,1,0.7,1.6c0,0.6-0.2,1.2-0.7,1.6    c-0.5,0.4-1,0.6-1.6,0.6c-0.6,0-1.2-0.2-1.7-0.6c-0.5-0.4-0.8-1-0.8-1.6C453.5,383.8,453.8,383.3,454.3,382.8z M457.9,390.1V406    h-4.2v-15.9H457.9z"
   id="path14" />
		<path
   class="st1"
   d="M465,405.7c-1.1-0.4-2-1.1-2.7-1.9l1.8-2.4c1.3,1.3,2.7,2,4.1,2c0.8,0,1.4-0.1,1.9-0.4    c0.5-0.3,0.7-0.7,0.7-1.3c0-0.6-0.3-1.1-0.8-1.4c-0.5-0.3-1.1-0.5-1.7-0.7c-0.6-0.2-1-0.3-1.2-0.4c-1.4-0.4-2.4-1-3.1-1.9    c-0.7-0.8-1-1.8-1-2.9c0-0.9,0.2-1.7,0.7-2.5c0.4-0.8,1.1-1.4,2-1.9c0.9-0.5,2-0.7,3.2-0.7c1.2,0,2.2,0.1,3.1,0.4s1.7,0.7,2.5,1.3    l-1.6,2.5c-0.5-0.4-1-0.8-1.6-1c-0.6-0.3-1.2-0.4-1.7-0.4c-0.7,0-1.2,0.2-1.6,0.5c-0.4,0.3-0.6,0.7-0.6,1.2c0,0.6,0.2,1,0.6,1.3    c0.5,0.3,1.2,0.6,2.2,0.9c0.4,0.1,0.7,0.2,0.8,0.3c1.3,0.4,2.2,1,2.9,1.7c0.7,0.7,1.1,1.6,1.1,2.8c0,1.6-0.6,2.8-1.7,3.9    c-1.1,1-2.7,1.6-4.8,1.6C467.2,406.3,466.1,406.1,465,405.7z"
   id="path15" />
		<path
   class="st1"
   d="M334.2,432.2c-1,0.3-2,0.5-3.1,0.5c-1.8,0-3.3-0.3-4.6-1c-1.3-0.7-2.4-1.6-3.1-2.9c-0.7-1.3-1.1-2.7-1.1-4.5    c0-1.7,0.4-3.1,1.2-4.4c0.8-1.3,1.8-2.2,3.1-2.9c1.3-0.7,2.7-1,4.2-1c2.5,0,4.6,0.7,6.2,2l-2.1,2.7c-0.5-0.4-1-0.7-1.7-1    c-0.6-0.3-1.3-0.4-2-0.4c-1.3,0-2.4,0.5-3.2,1.4c-0.9,0.9-1.3,2.1-1.3,3.5s0.5,2.6,1.4,3.5c0.9,0.9,2.1,1.4,3.6,1.4    c1.3,0,2.3-0.4,3.2-1.1l2.1,2.6C336,431.4,335.2,431.8,334.2,432.2z"
   id="path16" />
		<path
   class="st1"
   d="M339.7,419.8c0.8-1.3,1.8-2.3,3.2-3.1c1.4-0.7,2.9-1.1,4.6-1.1c1.7,0,3.3,0.4,4.6,1.1c1.3,0.7,2.4,1.8,3.1,3    c0.7,1.3,1.1,2.7,1.1,4.3c0,1.6-0.4,3-1.1,4.3c-0.7,1.3-1.8,2.3-3.1,3.1c-1.3,0.8-2.9,1.1-4.6,1.1c-1.7,0-3.2-0.3-4.6-1    c-1.4-0.7-2.4-1.7-3.2-3c-0.8-1.3-1.1-2.8-1.1-4.5C338.5,422.6,338.9,421.1,339.7,419.8z M344.1,427.8c0.9,1,2,1.4,3.3,1.4    c1.4,0,2.5-0.5,3.3-1.4c0.9-1,1.3-2.2,1.3-3.6c0-1.5-0.4-2.7-1.3-3.6c-0.9-1-2-1.4-3.3-1.4c-1.3,0-2.4,0.5-3.3,1.5    c-0.9,1-1.3,2.2-1.3,3.6C342.8,425.6,343.2,426.8,344.1,427.8z"
   id="path17" />
		<path
   class="st1"
   d="M373.8,417c1,0.9,1.5,2,1.5,3.4v11.8h-4.2V422c0-0.8-0.3-1.5-0.7-2c-0.4-0.5-1.1-0.7-2-0.8    c-1.3,0-2.4,0.6-3.2,1.7c-0.8,1.1-1.3,2.5-1.3,4.3v7.1h-4.2v-15.9h3.8l0.3,2.8c0.6-1.1,1.4-2,2.5-2.6s2.3-0.9,3.8-0.9    C371.5,415.7,372.8,416.1,373.8,417z"
   id="path18" />
		<path
   class="st1"
   d="M434.6,393.5c-0.7-1.3-1.6-2.3-2.8-3c-1.2-0.7-2.5-1.1-4-1.1c-1.3,0-2.5,0.3-3.5,0.8c-1.1,0.5-2,1.2-2.9,2    l-0.4-2.4h-3.6v22.5c0.1,0,0.2,0,0.3,0c1.6,0,2.9,0.4,3.9,1v-9.3c0.6,0.7,1.4,1.3,2.4,1.7c1,0.4,2,0.6,3,0.6c1.7,0,3.1-0.3,4.5-1    c1.3-0.7,2.3-1.7,3.1-2.9c0.7-1.3,1.1-2.8,1.1-4.5C435.6,396.3,435.3,394.8,434.6,393.5z M430.6,400.6c-0.5,0.8-1.1,1.3-1.9,1.8    c-0.8,0.4-1.6,0.7-2.6,0.7c-1.2,0-2.1-0.3-3-1c-0.8-0.7-1.4-1.5-1.6-2.5v-3.2c0.4-1.1,1-1.9,1.8-2.5c0.8-0.6,1.9-0.9,3.1-0.9    c1.4,0,2.5,0.5,3.5,1.4c0.9,1,1.4,2.2,1.4,3.7C431.3,399,431.1,399.9,430.6,400.6z"
   id="path19" />
		<path
   class="st1"
   d="M386.8,409.4v7h4.1v3.3h-4.1v12.6h-4.2v-12.6h-2.7v-3.3h2.7v-7H386.8z"
   id="path20" />
		<path
   class="st1"
   d="M401,417.8c0.8-0.7,1.6-1.2,2.4-1.6c0.8-0.4,1.5-0.5,2-0.5l-0.2,4.2c-1.2-0.1-2.2,0.1-3.1,0.6    c-0.9,0.5-1.6,1.2-2.1,2.1c-0.5,0.9-0.8,1.8-0.8,2.8v6.8h-4.2v-15.9h3.8l0.3,3.7C399.6,419.2,400.2,418.4,401,417.8z"
   id="path21" />
		<path
   class="st1"
   d="M426.3,416.4v15.9h-4.2V430c-0.6,0.7-1.4,1.3-2.3,1.9s-2.1,0.8-3.4,0.8c-1.5,0-2.9-0.3-4.1-1    c-1.2-0.6-2.2-1.6-2.9-2.8c-0.7-1.3-1.1-2.8-1.1-4.5c0-1.7,0.4-3.2,1.1-4.6c0.7-1.3,1.7-2.3,2.9-3c1.2-0.7,2.5-1.1,4-1.1    c2.6,0,4.5,1,5.8,2.9l0.3-2.1H426.3z M420.4,428.3c0.8-0.6,1.3-1.4,1.7-2.5v-3.5c-0.3-1-0.9-1.8-1.7-2.4c-0.9-0.6-1.9-0.9-3-0.9    c-1.3,0-2.5,0.5-3.4,1.4c-0.9,0.9-1.4,2.1-1.4,3.6c0,1,0.2,1.8,0.7,2.6c0.5,0.8,1.1,1.4,1.8,1.8c0.8,0.5,1.6,0.7,2.4,0.7    C418.7,429.2,419.6,428.9,420.4,428.3z"
   id="path22" />
		<path
   class="st1"
   d="M442.3,432.2c-1,0.3-2,0.5-3.1,0.5c-1.8,0-3.3-0.3-4.6-1c-1.3-0.7-2.4-1.6-3.1-2.9c-0.7-1.3-1.1-2.7-1.1-4.5    c0-1.7,0.4-3.1,1.2-4.4c0.8-1.3,1.8-2.2,3.1-2.9c1.3-0.7,2.7-1,4.2-1c2.5,0,4.6,0.7,6.2,2l-2.1,2.7c-0.5-0.4-1-0.7-1.7-1    c-0.6-0.3-1.3-0.4-2-0.4c-1.3,0-2.4,0.5-3.2,1.4c-0.9,0.9-1.3,2.1-1.3,3.5s0.5,2.6,1.4,3.5c0.9,0.9,2.1,1.4,3.6,1.4    c1.3,0,2.3-0.4,3.2-1.1l2.1,2.6C444.2,431.4,443.4,431.8,442.3,432.2z"
   id="path23" />
		<path
   class="st1"
   d="M454.2,409.4v7h4.1v3.3h-4.1v12.6H450v-12.6h-2.7v-3.3h2.7v-7H454.2z"
   id="path24" />
		<path
   class="st1"
   d="M397.1,400.3l1.8,2.9c-1.4,1.3-3,2.1-4.4,2.6c-1,0.3-2.2,0.4-3.1,0.4c-1.8,0-3.4-0.4-4.8-1.1    c-1.3-0.7-2.4-1.7-3.1-3c-0.7-1.3-1.1-2.7-1.1-4.4c0-1.6,0.4-3,1.2-4.3c0.8-1.3,1.9-2.3,3.3-3.1c1.4-0.8,2.9-1.1,4.5-1.1    c2.2,0,3.9,0.6,5.4,1.9c1.4,1.3,2.4,3,2.9,5.4l-12.2,4.1c0.4,0.7,1,1.2,1.7,1.5c0.7,0.4,1.5,0.5,2.3,0.5    C394.1,402.6,395.9,401.5,397.1,400.3z M387.8,393.9c-0.8,0.9-1.3,2.1-1.3,3.6c0,0.3,0,0.5,0,0.6l8.3-3c-0.3-0.8-0.8-1.4-1.4-1.9    c-0.6-0.5-1.4-0.8-2.4-0.8C389.8,392.5,388.7,393,387.8,393.9z"
   id="path25" />
		<path
   class="st1"
   d="M492.4,400.3l1.8,2.9c-1.4,1.3-3,2.1-4.4,2.6c-1,0.3-2.2,0.4-3.1,0.4c-1.8,0-3.4-0.4-4.8-1.1    c-1.3-0.7-2.4-1.7-3.1-3c-0.7-1.3-1.1-2.7-1.1-4.4c0-1.6,0.4-3,1.2-4.3c0.8-1.3,1.9-2.3,3.3-3.1c1.4-0.8,2.9-1.1,4.5-1.1    c2.2,0,3.9,0.6,5.4,1.9c1.4,1.3,2.4,3,2.9,5.4l-12.2,4.1c0.4,0.7,1,1.2,1.7,1.5c0.7,0.4,1.5,0.5,2.3,0.5    C489.4,402.6,491.3,401.5,492.4,400.3z M483.2,393.9c-0.8,0.9-1.3,2.1-1.3,3.6c0,0.3,0,0.5,0,0.6l8.3-3c-0.3-0.8-0.8-1.4-1.4-1.9    c-0.6-0.5-1.4-0.8-2.4-0.8C485.1,392.5,484,393,483.2,393.9z"
   id="path26" />
	</g>
	<g
   id="g29">
		<path
   class="st0"
   d="M286,365.6h-0.2c-0.1,0,0,0.2-0.1,0.2l0.3,65.7c0.1,0,0.2,0,0.3,0c5.4,0,17.3-8.8,21.6-16.5    c8.7-15.7,7.4-36,7.4-36l-12.3-5.9c0,0-1-5.2-1-9.4C301.9,360.2,290.9,365.6,286,365.6z"
   id="path27" />
		<path
   class="st1"
   d="M285.8,434.9c-5.9,0-18.7-8.2-23.3-16.3c-8.8-15.3-6.9-36.5-6.8-37.4l0-0.5l0.3-0.4    c0.5-0.8,13.3-19.8,46-18.5l1.9,0.1v10.4c10.2,2.9,13.8,7.3,14,7.5l0.3,0.4l0.1,0.5c0.1,0.8,2.4,19.1-7.5,37.4    C305.2,428.2,292.1,434.9,285.8,434.9z M259.5,382.1c-0.2,3.3-1.1,21.6,6.4,34.6c4.1,7.1,15.7,14.3,19.9,14.3    c4.6,0,16.6-5.7,21.5-14.7c8.4-15.4,7.5-31.2,7.2-34.4c-1.1-1-4.8-4.1-13-6.2l-1.5-0.4v-9.6C273.3,365.3,261.4,379.6,259.5,382.1z    "
   id="path28" />
		<circle
   class="st1"
   cx="273"
   cy="395.1"
   r="3.6"
   id="circle28" />
		<circle
   class="st1"
   cx="298.8"
   cy="395.1"
   r="3.6"
   id="circle29" />
		<path
   class="st1"
   d="M294.2,414.1c-0.2-0.2-0.7-0.4-1.5,0.1c-0.6,0.5-1.1,0.7-2.9,0.6c-0.4,0-1.1-0.3-2.3-1.4c0,0,0,0,0,0v-3.7    c1.6-0.6,3.5-1.9,3.5-3.4v-0.5c0-2.1-1.5-3.9-3.4-3.9H284c-1.9,0-3.4,1.7-3.4,3.9v0.5c0,1.5,1.9,2.7,3.5,3.4v3.7c0,0,0,0,0,0    c-1.2,1.1-1.9,1.4-2.3,1.4c-1.8,0.2-2.3-0.1-2.9-0.6c-0.7-0.6-1.2-0.3-1.5-0.1c-0.5,0.4-0.7,1.2-0.5,1.6c0.3,0.5,0.8,1.1,1.3,1.4    c1.1,0.5,2.3,0.8,3.6,0.7c1.9-0.1,3.2-1.1,3.8-1.4c0.1-0.1,0.2-0.1,0.2-0.1l0,0l0,0c0,0,0.1,0.1,0.2,0.1c0.6,0.4,1.9,1.3,3.8,1.4    c0.2,0,0.4,0,0.6,0c1.1,0,2.1-0.2,3-0.7c0.6-0.3,1.1-0.8,1.3-1.4C294.9,415.3,294.7,414.5,294.2,414.1z"
   id="path29" />
	</g><path
   class="st0"
   d="m 298.21286,487.05434 h -0.20832 c -0.10416,0 0,0.20756 -0.10416,0.20756 l 0.31248,68.18553 c 0.10416,0 0.20832,0 0.31247,0 5.62459,0 18.01952,-9.13291 22.49836,-17.12422 9.06184,-16.29395 7.70777,-37.36193 7.70777,-37.36193 l -12.81156,-6.12321 c 0,0 -1.04159,-5.39672 -1.04159,-9.75561 -0.10416,-3.63241 -11.56166,1.97188 -16.66545,1.97188 z"
   id="path27-9"
   style="fill:#d1d3d4;stroke-width:1.03971" /><path
   class="st1"
   d="m 298.00038,556.23781 c -5.9,0 -18.7,-8.2 -23.3,-16.3 -8.8,-15.3 -6.9,-36.5 -6.8,-37.4 v -0.5 l 0.3,-0.4 c 0.5,-0.8 13.3,-19.8 46,-18.5 l 1.9,0.1 v 10.4 c 10.2,2.9 13.8,7.3 14,7.5 l 0.3,0.4 0.1,0.5 c 0.1,0.8 2.4,19.1 -7.5,37.4 -5.6,10.1 -18.7,16.8 -25,16.8 z m -26.3,-52.8 c -0.2,3.3 -1.1,21.6 6.4,34.6 4.1,7.1 15.7,14.3 19.9,14.3 4.6,0 16.6,-5.7 21.5,-14.7 8.4,-15.4 7.5,-31.2 7.2,-34.4 -1.1,-1 -4.8,-4.1 -13,-6.2 l -1.5,-0.4 v -9.6 c -26.7,-0.4 -38.6,13.9 -40.5,16.4 z"
   id="path28-7"
   style="fill:#785fa9" /><circle
   class="st1"
   cx="285.20038"
   cy="516.43781"
   r="3.5999999"
   id="circle28-3"
   style="fill:#785fa9" /><circle
   class="st1"
   cx="311.00037"
   cy="516.43781"
   r="3.5999999"
   id="circle29-6"
   style="fill:#785fa9" /><path
   class="st1"
   d="m 306.40038,535.43781 c -0.2,-0.2 -0.7,-0.4 -1.5,0.1 -0.6,0.5 -1.1,0.7 -2.9,0.6 -0.4,0 -1.1,-0.3 -2.3,-1.4 0,0 0,0 0,0 v -3.7 c 1.6,-0.6 3.5,-1.9 3.5,-3.4 v -0.5 c 0,-2.1 -1.5,-3.9 -3.4,-3.9 h -3.6 c -1.9,0 -3.4,1.7 -3.4,3.9 v 0.5 c 0,1.5 1.9,2.7 3.5,3.4 v 3.7 c 0,0 0,0 0,0 -1.2,1.1 -1.9,1.4 -2.3,1.4 -1.8,0.2 -2.3,-0.1 -2.9,-0.6 -0.7,-0.6 -1.2,-0.3 -1.5,-0.1 -0.5,0.4 -0.7,1.2 -0.5,1.6 0.3,0.5 0.8,1.1 1.3,1.4 1.1,0.5 2.3,0.8 3.6,0.7 1.9,-0.1 3.2,-1.1 3.8,-1.4 0.1,-0.1 0.2,-0.1 0.2,-0.1 v 0 0 c 0,0 0.1,0.1 0.2,0.1 0.6,0.4 1.9,1.3 3.8,1.4 0.2,0 0.4,0 0.6,0 1.1,0 2.1,-0.2 3,-0.7 0.6,-0.3 1.1,-0.8 1.3,-1.4 0.2,-0.4 0,-1.2 -0.5,-1.6 z"
   id="path29-1"
   style="fill:#785fa9" />
<text
   xml:space="preserve"
   id="text31"
   style="font-style:normal;font-variant:normal;font-weight:bold;font-stretch:normal;font-size:48px;line-height:1.25;font-family:'Droid Sans';-inkscape-font-specification:'Droid Sans, Bold';font-variant-ligatures:normal;font-variant-caps:normal;font-variant-numeric:normal;font-variant-east-asian:normal;white-space:pre;shape-inside:url(#rect31);fill:#785fa9;fill-opacity:1;stroke:none"><tspan
     x="352.86719"
     y="590.21785"
     id="tspan2"><tspan
       dx="0 27.890625 23.953125 14.648438 14.648438 29.179688 19.875 14.648438 23.953125"
       id="tspan1">echinus</tspan></tspan></text><text
   style="font-size:53.3333px;line-height:1.25;font-family:Cantarell;-inkscape-font-specification:'Cantarell, Normal';white-space:pre;fill:#785fa9"
   x="331.50369"
   y="549.68414"
   id="text41">e</text><text
   style="font-size:53.3333px;line-height:1.25;font-family:Cantarell;-inkscape-font-specification:'Cantarell, Normal';white-space:pre;fill:#785fa9"
   x="357.66367"
   y="549.68414"
   id="text40">c</text><text
   style="font-size:53.3333px;line-height:1.25;font-family:Cantarell;-inkscape-font-specification:'Cantarell, Normal';white-space:pre;fill:#785fa9"
   x="380.28961"
   y="549.68414"
   id="text39">l</text><text
   style="font-size:53.3333px;line-height:1.25;font-family:Cantarell;-inkscape-font-specification:'Cantarell, Normal';white-space:pre;fill:#785fa9"
   x="394.35602"
   y="549.68414"
   id="text38">i</text><text
   style="font-size:53.3333px;line-height:1.25;font-family:Cantarell;-inkscape-font-specification:'Cantarell, Normal';white-space:pre;fill:#785fa9"
   x="405.49362"
   y="549.68414"
   id="text37">p</text><text
   style="font-size:53.3333px;line-height:1.25;font-family:Cantarell;-inkscape-font-specification:'Cantarell, Normal';white-space:pre;fill:#785fa9"
   x="433.20425"
   y="549.68414"
   id="text36">t</text><text
   style="font-size:53.3333px;line-height:1.25;font-family:Cantarell;-inkscape-font-specification:'Cantarell, Normal';white-space:pre;fill:#785fa9"
   x="450.93707"
   y="549.68414"
   id="text35">i</text><text
   style="font-size:53.3333px;line-height:1.25;font-family:Cantarell;-inkscape-font-specification:'Cantarell, Normal';white-space:pre;fill:#785fa9"
   x="461.77631"
   y="549.68414"
   id="text34">c</text><text
   style="font-size:53.3333px;line-height:1.25;font-family:Cantarell;-inkscape-font-specification:'Cantarell, Normal';white-space:pre;fill:#785fa9"
   x="485.16251"
   y="549.68414"
   id="text33">a</text><text
   xml:space="preserve"
   id="text42"
   style="fill:black;fill-opacity:1;line-height:1.25;stroke:none;font-family:sans-serif;font-style:normal;font-weight:normal;font-size:40px;white-space:pre;shape-inside:url(#rect42)" /><text
   xml:space="preserve"
   style="font-style:normal;font-variant:normal;font-weight:normal;font-stretch:normal;font-size:10.6667px;line-height:1.25;font-family:Sans;-inkscape-font-specification:'Sans, Normal';font-variant-ligatures:normal;font-variant-caps:normal;font-variant-numeric:normal;font-variant-east-asian:normal;white-space:pre;inline-size:172.411;fill:#000000;fill-opacity:1;stroke:none"
   x="632.50555"
   y="443.78754"
   id="text43"
   transform="translate(-19.112532,84.198539)"><tspan
     x="632.50555"
     y="443.78754"
     id="tspan3">&lt;-- The font here is Cantarell </tspan><tspan
     x="632.50555"
     y="457.12092"
     id="tspan4">Normal with some manual </tspan><tspan
     x="632.50555"
     y="470.4543"
     id="tspan5">kerning
</tspan></text></g>
</svg>
