<?xml version="1.0" encoding="UTF-8" standalone="no"?>
<!-- Generator: Adobe Illustrator 27.4.0, SVG Export Plug-In . SVG Version: 6.00 Build 0)  -->

<svg
   version="1.1"
   id="Layer_1"
   x="0px"
   y="0px"
   viewBox="0 0 792 612"
   style="enable-background:new 0 0 792 612;"
   xml:space="preserve"
   sodipodi:docname="ec-logo-final.svg"
   inkscape:version="1.3.2 (091e20ef0f, 2023-11-25)"
   xmlns:inkscape="http://www.inkscape.org/namespaces/inkscape"
   xmlns:sodipodi="http://sodipodi.sourceforge.net/DTD/sodipodi-0.dtd"
   xmlns="http://www.w3.org/2000/svg"
   xmlns:svg="http://www.w3.org/2000/svg"><defs
   id="defs30"><rect
   x="342.18031"
   y="497.97738"
   width="190.88142"
   height="64.704755"
   id="rect1" /><rect
   x="583.83299"
   y="418.11281"
   width="100.30749"
   height="43.372698"
   id="rect42" /><rect
   x="356.8238"
   y="484.46535"
   width="420.27188"
   height="89.537074"
   id="rect32" /><rect
   x="352.86813"
   y="494.44955"
   width="168.99788"
   height="53.238179"
   id="rect31" />
		
		
		
		
		
		
		
		
		
		
		
		
		
		
		
		
		
		
	
		
		
		
		
		
	
	
	
</defs><sodipodi:namedview
   id="namedview30"
   pagecolor="#ffffff"
   bordercolor="#666666"
   borderopacity="1.0"
   inkscape:showpageshadow="2"
   inkscape:pageopacity="0.0"
   inkscape:pagecheckerboard="0"
   inkscape:deskcolor="#d1d1d1"
   inkscape:zoom="1.63"
   inkscape:cx="303.98773"
   inkscape:cy="442.02454"
   inkscape:window-width="2560"
   inkscape:window-height="1371"
   inkscape:window-x="0"
   inkscape:window-y="0"
   inkscape:window-maximized="1"
   inkscape:current-layer="Layer_1" />
<style
   type="text/css"
   id="style1">
	.st0{fill:#D1D3D4;}
	.st1{fill:#785FA9;}
	.st2{fill:#AB9BCB;}
	.st3{fill:#FFFFFF;}
</style>
<path
   class="st0"
   d="M278.5,163.3h-0.2c-0.1,0,0,0.2-0.1,0.2l0.3,65.7c0.1,0,0.2,0,0.3,0c5.4,0,17.3-8.8,21.6-16.5  c8.7-15.7,7.4-36,7.4-36l-12.3-5.9c0,0-1-5.2-1-9.4C294.5,157.8,283.4,163.3,278.5,163.3z"
   id="path1" />
<path
   class="st1"
   d="M278.4,232.5c-5.9,0-18.7-8.2-23.3-16.3c-8.8-15.3-6.9-36.5-6.8-37.4l0-0.5l0.3-0.4c0.5-0.8,13.3-19.8,46-18.5  l1.9,0.1v10.4c10.2,2.9,13.8,7.3,14,7.5l0.3,0.4l0.1,0.5c0.1,0.8,2.4,19.1-7.5,37.4C297.8,225.8,284.7,232.5,278.4,232.5z   M252.1,179.7c-0.2,3.3-1.1,21.6,6.4,34.6c4.1,7.1,15.7,14.3,19.9,14.3c4.6,0,16.6-5.7,21.5-14.7c8.4-15.4,7.5-31.2,7.2-34.4  c-1.1-1-4.8-4.1-13-6.2l-1.5-0.4v-9.6C265.8,163,254,177.2,252.1,179.7z"
   id="path2" />
<circle
   class="st1"
   cx="265.6"
   cy="192.8"
   r="3.6"
   id="circle2" />
<circle
   class="st1"
   cx="291.4"
   cy="192.8"
   r="3.6"
   id="circle3" />
<path
   class="st1"
   d="M286.8,211.8c-0.2-0.2-0.7-0.4-1.5,0.1c-0.6,0.5-1.1,0.7-2.9,0.6c-0.4,0-1.1-0.3-2.3-1.4c0,0,0,0,0,0v-3.7  c1.6-0.6,3.5-1.9,3.5-3.4v-0.5c0-2.1-1.5-3.9-3.4-3.9h-3.7c-1.9,0-3.4,1.7-3.4,3.9v0.5c0,1.5,1.9,2.7,3.5,3.4v3.7c0,0,0,0,0,0  c-1.2,1.1-1.9,1.4-2.3,1.4c-1.8,0.2-2.3-0.1-2.9-0.6c-0.7-0.6-1.2-0.3-1.5-0.1c-0.5,0.4-0.7,1.2-0.5,1.6c0.3,0.5,0.8,1.1,1.3,1.4  c1.1,0.5,2.3,0.8,3.6,0.7c1.9-0.1,3.2-1.1,3.8-1.4c0.1-0.1,0.2-0.1,0.2-0.1l0,0l0,0c0,0,0.1,0.1,0.2,0.1c0.6,0.4,1.9,1.3,3.8,1.4  c0.2,0,0.4,0,0.6,0c1.1,0,2.1-0.2,3-0.7c0.6-0.3,1.1-0.8,1.3-1.4C287.4,213,287.2,212.1,286.8,211.8z"
   id="path3" />
<rect
   x="372.9"
   y="144.9"
   class="st1"
   width="114.1"
   height="110.5"
   id="rect3" />
<path
   class="st2"
   d="M429.9,162.3h-0.2c-0.1,0,0,0.2-0.1,0.2l0.3,65.7c0.1,0,0.2,0,0.3,0c5.4,0,17.2-6.1,21.4-13.8  c8.7-15.7,7.6-38.7,7.6-38.7l-12.3-5.9c0,0-1-5.2-1-9.4C445.8,156.9,434.8,162.3,429.9,162.3z"
   id="path4" />
<g
   id="g8">
	<path
   class="st3"
   d="M429.7,231.5c-5.9,0-18.7-8.2-23.3-16.3c-8.8-15.3-6.9-36.5-6.8-37.4l0-0.5l0.3-0.4c0.5-0.8,13.3-19.8,46-18.5   l1.9,0.1v10.4c10.2,2.9,13.8,7.3,14,7.5l0.3,0.4l0.1,0.5c0.1,0.8,2.4,19.1-7.5,37.4C449.2,224.9,436,231.5,429.7,231.5z    M403.5,178.8c-0.2,3.3-1.1,21.6,6.4,34.6c4.1,7.1,15.7,14.3,19.9,14.3c4.6,0,16.6-5.7,21.5-14.7c8.3-15.4,7.4-31.2,7.2-34.4   c-1.1-1-4.8-4.1-13-6.2l-1.5-0.4v-9.6c-14.9-0.2-25,4.2-30.9,8C407.4,173.9,404.3,177.6,403.5,178.8z"
   id="path5" />
	<path
   class="st3"
   d="M417,188.2c-2,0-3.6,1.6-3.6,3.6s1.6,3.6,3.6,3.6s3.6-1.6,3.6-3.6S419,188.2,417,188.2z"
   id="path6" />
	<path
   class="st3"
   d="M442.7,188.2c-2,0-3.6,1.6-3.6,3.6s1.6,3.6,3.6,3.6s3.6-1.6,3.6-3.6S444.7,188.2,442.7,188.2z"
   id="path7" />
	<path
   class="st3"
   d="M438.1,210.8c-0.2-0.2-0.7-0.4-1.5,0.1c-0.6,0.5-1.1,0.7-2.9,0.6c-0.4,0-1.1-0.3-2.3-1.4c0,0,0,0,0,0v-3.7   c1.6-0.6,3.5-1.9,3.5-3.4v-0.5c0-2.1-1.5-3.9-3.4-3.9h-3.7c-1.9,0-3.4,1.7-3.4,3.9v0.5c0,1.5,1.9,2.7,3.5,3.4v3.7c0,0,0,0,0,0   c-1.2,1.1-1.9,1.4-2.3,1.4c-1.8,0.2-2.3-0.1-2.9-0.6c-0.7-0.6-1.2-0.3-1.5-0.1c-0.5,0.4-0.7,1.2-0.5,1.6c0.2,0.5,0.8,1.1,1.3,1.4   c1.1,0.5,2.2,0.8,3.6,0.7c1.9-0.1,3.2-1.1,3.8-1.4c0.1-0.1,0.2-0.1,0.2-0.1l0,0l0,0c0,0,0.1,0.1,0.2,0.1c0.6,0.4,1.9,1.3,3.8,1.4   c0.2,0,0.4,0,0.6,0c1.1,0,2.1-0.2,3-0.7c0.6-0.3,1.1-0.8,1.3-1.4C438.8,212,438.6,211.1,438.1,210.8z"
   id="path8" />
</g>
<g
   id="g26">
		<path
   class="st1"
   d="m 344.5,400.5 1.8,2.9 c -1.4,1.3 -3,2.1 -4.4,2.6 -1,0.3 -2.2,0.4 -3.1,0.4 -1.8,0 -3.4,-0.4 -4.8,-1.1 -1.4,-0.7 -2.4,-1.7 -3.1,-3 -0.7,-1.3 -1.1,-2.7 -1.1,-4.4 0,-1.6 0.4,-3 1.2,-4.3 0.8,-1.3 1.9,-2.3 3.3,-3.1 1.4,-0.8 2.9,-1.1 4.5,-1.1 2.2,0 3.9,0.6 5.4,1.9 1.4,1.3 2.4,3 2.9,5.4 l -12.2,4.1 c 0.4,0.7 1,1.2 1.7,1.5 0.7,0.4 1.5,0.5 2.3,0.5 2.6,0 4.5,-1.1 5.6,-2.3 z m -9.2,-6.4 c -0.8,0.9 -1.3,2.1 -1.3,3.6 0,0.3 0,0.5 0,0.6 l 8.3,-3 c -0.3,-0.8 -0.8,-1.4 -1.4,-1.9 -0.6,-0.5 -1.4,-0.8 -2.4,-0.8 -1.3,0.1 -2.3,0.6 -3.2,1.5 z"
   id="path9" />
		<path
   class="st1"
   d="m 364.3,390.8 c 1,0.9 1.5,2 1.5,3.4 V 406 h -4.2 v -10.3 c 0,-0.8 -0.3,-1.5 -0.7,-2 -0.4,-0.5 -1.1,-0.7 -2,-0.8 -1.3,0 -2.4,0.6 -3.2,1.7 -0.8,1.1 -1.3,2.5 -1.3,4.3 v 7.1 h -4.2 v -15.9 h 3.8 l 0.3,2.8 c 0.6,-1.1 1.4,-2 2.5,-2.6 1.1,-0.6 2.3,-0.9 3.8,-0.9 1.5,0 2.7,0.5 3.7,1.4 z"
   id="path10" />
		<path
   class="st1"
   d="m 376.4,383.1 v 7 h 4.1 v 3.3 h -4.1 V 406 h -4.2 v -12.6 h -2.7 v -3.3 h 2.7 v -7 z"
   id="path11" />
		<path
   class="st1"
   d="m 409.6,391.5 c 0.8,-0.7 1.6,-1.2 2.4,-1.6 0.8,-0.4 1.5,-0.5 2,-0.5 l -0.2,4.2 c -1.2,-0.1 -2.2,0.1 -3.1,0.6 -0.9,0.5 -1.6,1.2 -2.1,2.1 -0.5,0.9 -0.8,1.8 -0.8,2.8 v 6.8 h -4.2 V 390 h 3.8 l 0.3,3.7 c 0.5,-0.8 1.1,-1.5 1.9,-2.2 z"
   id="path12" />
		<path
   class="st1"
   d="m 444.9,391.5 c 0.8,-0.7 1.6,-1.2 2.4,-1.6 0.8,-0.4 1.5,-0.5 2,-0.5 l -0.2,4.2 c -1.2,-0.1 -2.2,0.1 -3.1,0.6 -0.9,0.5 -1.6,1.2 -2.1,2.1 -0.5,0.9 -0.8,1.8 -0.8,2.8 v 6.8 h -4.2 V 390 h 3.8 l 0.3,3.7 c 0.6,-0.8 1.2,-1.5 1.9,-2.2 z"
   id="path13" />
		<path
   class="st1"
   d="m 454.3,382.8 c 0.5,-0.4 1.1,-0.7 1.7,-0.7 0.6,0 1.1,0.2 1.6,0.7 0.5,0.4 0.7,1 0.7,1.6 0,0.6 -0.2,1.2 -0.7,1.6 -0.5,0.4 -1,0.6 -1.6,0.6 -0.6,0 -1.2,-0.2 -1.7,-0.6 -0.5,-0.4 -0.8,-1 -0.8,-1.6 0,-0.6 0.3,-1.1 0.8,-1.6 z m 3.6,7.3 V 406 h -4.2 v -15.9 z"
   id="path14" />
		<path
   class="st1"
   d="m 465,405.7 c -1.1,-0.4 -2,-1.1 -2.7,-1.9 l 1.8,-2.4 c 1.3,1.3 2.7,2 4.1,2 0.8,0 1.4,-0.1 1.9,-0.4 0.5,-0.3 0.7,-0.7 0.7,-1.3 0,-0.6 -0.3,-1.1 -0.8,-1.4 -0.5,-0.3 -1.1,-0.5 -1.7,-0.7 -0.6,-0.2 -1,-0.3 -1.2,-0.4 -1.4,-0.4 -2.4,-1 -3.1,-1.9 -0.7,-0.8 -1,-1.8 -1,-2.9 0,-0.9 0.2,-1.7 0.7,-2.5 0.4,-0.8 1.1,-1.4 2,-1.9 0.9,-0.5 2,-0.7 3.2,-0.7 1.2,0 2.2,0.1 3.1,0.4 0.9,0.3 1.7,0.7 2.5,1.3 l -1.6,2.5 c -0.5,-0.4 -1,-0.8 -1.6,-1 -0.6,-0.3 -1.2,-0.4 -1.7,-0.4 -0.7,0 -1.2,0.2 -1.6,0.5 -0.4,0.3 -0.6,0.7 -0.6,1.2 0,0.6 0.2,1 0.6,1.3 0.5,0.3 1.2,0.6 2.2,0.9 0.4,0.1 0.7,0.2 0.8,0.3 1.3,0.4 2.2,1 2.9,1.7 0.7,0.7 1.1,1.6 1.1,2.8 0,1.6 -0.6,2.8 -1.7,3.9 -1.1,1 -2.7,1.6 -4.8,1.6 -1.3,0 -2.4,-0.2 -3.5,-0.6 z"
   id="path15" />
		<path
   class="st1"
   d="m 334.2,432.2 c -1,0.3 -2,0.5 -3.1,0.5 -1.8,0 -3.3,-0.3 -4.6,-1 -1.3,-0.7 -2.4,-1.6 -3.1,-2.9 -0.7,-1.3 -1.1,-2.7 -1.1,-4.5 0,-1.7 0.4,-3.1 1.2,-4.4 0.8,-1.3 1.8,-2.2 3.1,-2.9 1.3,-0.7 2.7,-1 4.2,-1 2.5,0 4.6,0.7 6.2,2 l -2.1,2.7 c -0.5,-0.4 -1,-0.7 -1.7,-1 -0.6,-0.3 -1.3,-0.4 -2,-0.4 -1.3,0 -2.4,0.5 -3.2,1.4 -0.9,0.9 -1.3,2.1 -1.3,3.5 0,1.4 0.5,2.6 1.4,3.5 0.9,0.9 2.1,1.4 3.6,1.4 1.3,0 2.3,-0.4 3.2,-1.1 l 2.1,2.6 c -1,0.8 -1.8,1.2 -2.8,1.6 z"
   id="path16" />
		<path
   class="st1"
   d="m 339.7,419.8 c 0.8,-1.3 1.8,-2.3 3.2,-3.1 1.4,-0.7 2.9,-1.1 4.6,-1.1 1.7,0 3.3,0.4 4.6,1.1 1.3,0.7 2.4,1.8 3.1,3 0.7,1.3 1.1,2.7 1.1,4.3 0,1.6 -0.4,3 -1.1,4.3 -0.7,1.3 -1.8,2.3 -3.1,3.1 -1.3,0.8 -2.9,1.1 -4.6,1.1 -1.7,0 -3.2,-0.3 -4.6,-1 -1.4,-0.7 -2.4,-1.7 -3.2,-3 -0.8,-1.3 -1.1,-2.8 -1.1,-4.5 -0.1,-1.4 0.3,-2.9 1.1,-4.2 z m 4.4,8 c 0.9,1 2,1.4 3.3,1.4 1.4,0 2.5,-0.5 3.3,-1.4 0.9,-1 1.3,-2.2 1.3,-3.6 0,-1.5 -0.4,-2.7 -1.3,-3.6 -0.9,-1 -2,-1.4 -3.3,-1.4 -1.3,0 -2.4,0.5 -3.3,1.5 -0.9,1 -1.3,2.2 -1.3,3.6 0,1.3 0.4,2.5 1.3,3.5 z"
   id="path17" />
		<path
   class="st1"
   d="m 373.8,417 c 1,0.9 1.5,2 1.5,3.4 v 11.8 h -4.2 V 422 c 0,-0.8 -0.3,-1.5 -0.7,-2 -0.4,-0.5 -1.1,-0.7 -2,-0.8 -1.3,0 -2.4,0.6 -3.2,1.7 -0.8,1.1 -1.3,2.5 -1.3,4.3 v 7.1 h -4.2 v -15.9 h 3.8 l 0.3,2.8 c 0.6,-1.1 1.4,-2 2.5,-2.6 1.1,-0.6 2.3,-0.9 3.8,-0.9 1.4,0 2.7,0.4 3.7,1.3 z"
   id="path18" />
		<path
   class="st1"
   d="m 434.6,393.5 c -0.7,-1.3 -1.6,-2.3 -2.8,-3 -1.2,-0.7 -2.5,-1.1 -4,-1.1 -1.3,0 -2.5,0.3 -3.5,0.8 -1.1,0.5 -2,1.2 -2.9,2 l -0.4,-2.4 h -3.6 v 22.5 c 0.1,0 0.2,0 0.3,0 1.6,0 2.9,0.4 3.9,1 V 404 c 0.6,0.7 1.4,1.3 2.4,1.7 1,0.4 2,0.6 3,0.6 1.7,0 3.1,-0.3 4.5,-1 1.3,-0.7 2.3,-1.7 3.1,-2.9 0.7,-1.3 1.1,-2.8 1.1,-4.5 -0.1,-1.6 -0.4,-3.1 -1.1,-4.4 z m -4,7.1 c -0.5,0.8 -1.1,1.3 -1.9,1.8 -0.8,0.4 -1.6,0.7 -2.6,0.7 -1.2,0 -2.1,-0.3 -3,-1 -0.8,-0.7 -1.4,-1.5 -1.6,-2.5 v -3.2 c 0.4,-1.1 1,-1.9 1.8,-2.5 0.8,-0.6 1.9,-0.9 3.1,-0.9 1.4,0 2.5,0.5 3.5,1.4 0.9,1 1.4,2.2 1.4,3.7 0,0.9 -0.2,1.8 -0.7,2.5 z"
   id="path19" />
		<path
   class="st1"
   d="m 386.8,409.4 v 7 h 4.1 v 3.3 h -4.1 v 12.6 h -4.2 v -12.6 h -2.7 v -3.3 h 2.7 v -7 z"
   id="path20" />
		<path
   class="st1"
   d="m 401,417.8 c 0.8,-0.7 1.6,-1.2 2.4,-1.6 0.8,-0.4 1.5,-0.5 2,-0.5 l -0.2,4.2 c -1.2,-0.1 -2.2,0.1 -3.1,0.6 -0.9,0.5 -1.6,1.2 -2.1,2.1 -0.5,0.9 -0.8,1.8 -0.8,2.8 v 6.8 H 395 v -15.9 h 3.8 l 0.3,3.7 c 0.5,-0.8 1.1,-1.6 1.9,-2.2 z"
   id="path21" />
		<path
   class="st1"
   d="m 426.3,416.4 v 15.9 h -4.2 V 430 c -0.6,0.7 -1.4,1.3 -2.3,1.9 -0.9,0.6 -2.1,0.8 -3.4,0.8 -1.5,0 -2.9,-0.3 -4.1,-1 -1.2,-0.6 -2.2,-1.6 -2.9,-2.8 -0.7,-1.3 -1.1,-2.8 -1.1,-4.5 0,-1.7 0.4,-3.2 1.1,-4.6 0.7,-1.3 1.7,-2.3 2.9,-3 1.2,-0.7 2.5,-1.1 4,-1.1 2.6,0 4.5,1 5.8,2.9 l 0.3,-2.1 h 3.9 z m -5.9,11.9 c 0.8,-0.6 1.3,-1.4 1.7,-2.5 v -3.5 c -0.3,-1 -0.9,-1.8 -1.7,-2.4 -0.9,-0.6 -1.9,-0.9 -3,-0.9 -1.3,0 -2.5,0.5 -3.4,1.4 -0.9,0.9 -1.4,2.1 -1.4,3.6 0,1 0.2,1.8 0.7,2.6 0.5,0.8 1.1,1.4 1.8,1.8 0.8,0.5 1.6,0.7 2.4,0.7 1.2,0.1 2.1,-0.2 2.9,-0.8 z"
   id="path22" />
		<path
   class="st1"
   d="m 442.3,432.2 c -1,0.3 -2,0.5 -3.1,0.5 -1.8,0 -3.3,-0.3 -4.6,-1 -1.3,-0.7 -2.4,-1.6 -3.1,-2.9 -0.7,-1.3 -1.1,-2.7 -1.1,-4.5 0,-1.7 0.4,-3.1 1.2,-4.4 0.8,-1.3 1.8,-2.2 3.1,-2.9 1.3,-0.7 2.7,-1 4.2,-1 2.5,0 4.6,0.7 6.2,2 l -2.1,2.7 c -0.5,-0.4 -1,-0.7 -1.7,-1 -0.6,-0.3 -1.3,-0.4 -2,-0.4 -1.3,0 -2.4,0.5 -3.2,1.4 -0.9,0.9 -1.3,2.1 -1.3,3.5 0,1.4 0.5,2.6 1.4,3.5 0.9,0.9 2.1,1.4 3.6,1.4 1.3,0 2.3,-0.4 3.2,-1.1 l 2.1,2.6 c -0.9,0.8 -1.7,1.2 -2.8,1.6 z"
   id="path23" />
		<path
   class="st1"
   d="m 454.2,409.4 v 7 h 4.1 v 3.3 h -4.1 v 12.6 H 450 v -12.6 h -2.7 v -3.3 h 2.7 v -7 z"
   id="path24" />
		<path
   class="st1"
   d="m 397.1,400.3 1.8,2.9 c -1.4,1.3 -3,2.1 -4.4,2.6 -1,0.3 -2.2,0.4 -3.1,0.4 -1.8,0 -3.4,-0.4 -4.8,-1.1 -1.3,-0.7 -2.4,-1.7 -3.1,-3 -0.7,-1.3 -1.1,-2.7 -1.1,-4.4 0,-1.6 0.4,-3 1.2,-4.3 0.8,-1.3 1.9,-2.3 3.3,-3.1 1.4,-0.8 2.9,-1.1 4.5,-1.1 2.2,0 3.9,0.6 5.4,1.9 1.4,1.3 2.4,3 2.9,5.4 l -12.2,4.1 c 0.4,0.7 1,1.2 1.7,1.5 0.7,0.4 1.5,0.5 2.3,0.5 2.6,0 4.4,-1.1 5.6,-2.3 z m -9.3,-6.4 c -0.8,0.9 -1.3,2.1 -1.3,3.6 0,0.3 0,0.5 0,0.6 l 8.3,-3 c -0.3,-0.8 -0.8,-1.4 -1.4,-1.9 -0.6,-0.5 -1.4,-0.8 -2.4,-0.8 -1.2,0.1 -2.3,0.6 -3.2,1.5 z"
   id="path25" />
		<path
   class="st1"
   d="m 492.4,400.3 1.8,2.9 c -1.4,1.3 -3,2.1 -4.4,2.6 -1,0.3 -2.2,0.4 -3.1,0.4 -1.8,0 -3.4,-0.4 -4.8,-1.1 -1.3,-0.7 -2.4,-1.7 -3.1,-3 -0.7,-1.3 -1.1,-2.7 -1.1,-4.4 0,-1.6 0.4,-3 1.2,-4.3 0.8,-1.3 1.9,-2.3 3.3,-3.1 1.4,-0.8 2.9,-1.1 4.5,-1.1 2.2,0 3.9,0.6 5.4,1.9 1.4,1.3 2.4,3 2.9,5.4 l -12.2,4.1 c 0.4,0.7 1,1.2 1.7,1.5 0.7,0.4 1.5,0.5 2.3,0.5 2.6,0 4.5,-1.1 5.6,-2.3 z m -9.2,-6.4 c -0.8,0.9 -1.3,2.1 -1.3,3.6 0,0.3 0,0.5 0,0.6 l 8.3,-3 c -0.3,-0.8 -0.8,-1.4 -1.4,-1.9 -0.6,-0.5 -1.4,-0.8 -2.4,-0.8 -1.3,0.1 -2.4,0.6 -3.2,1.5 z"
   id="path26" />
	</g><g
   id="g29">
		<path
   class="st0"
   d="m 286,365.6 h -0.2 c -0.1,0 0,0.2 -0.1,0.2 l 0.3,65.7 c 0.1,0 0.2,0 0.3,0 5.4,0 17.3,-8.8 21.6,-16.5 8.7,-15.7 7.4,-36 7.4,-36 L 303,373.1 c 0,0 -1,-5.2 -1,-9.4 -0.1,-3.5 -11.1,1.9 -16,1.9 z"
   id="path27" />
		<path
   class="st1"
   d="m 285.8,434.9 c -5.9,0 -18.7,-8.2 -23.3,-16.3 -8.8,-15.3 -6.9,-36.5 -6.8,-37.4 v -0.5 l 0.3,-0.4 c 0.5,-0.8 13.3,-19.8 46,-18.5 l 1.9,0.1 v 10.4 c 10.2,2.9 13.8,7.3 14,7.5 l 0.3,0.4 0.1,0.5 c 0.1,0.8 2.4,19.1 -7.5,37.4 -5.6,10.1 -18.7,16.8 -25,16.8 z m -26.3,-52.8 c -0.2,3.3 -1.1,21.6 6.4,34.6 4.1,7.1 15.7,14.3 19.9,14.3 4.6,0 16.6,-5.7 21.5,-14.7 8.4,-15.4 7.5,-31.2 7.2,-34.4 -1.1,-1 -4.8,-4.1 -13,-6.2 l -1.5,-0.4 v -9.6 c -26.7,-0.4 -38.6,13.9 -40.5,16.4 z"
   id="path28" />
		<circle
   class="st1"
   cx="273"
   cy="395.10001"
   r="3.5999999"
   id="circle28" />
		<circle
   class="st1"
   cx="298.79999"
   cy="395.10001"
   r="3.5999999"
   id="circle29" />
		<path
   class="st1"
   d="m 294.2,414.1 c -0.2,-0.2 -0.7,-0.4 -1.5,0.1 -0.6,0.5 -1.1,0.7 -2.9,0.6 -0.4,0 -1.1,-0.3 -2.3,-1.4 0,0 0,0 0,0 v -3.7 c 1.6,-0.6 3.5,-1.9 3.5,-3.4 v -0.5 c 0,-2.1 -1.5,-3.9 -3.4,-3.9 H 284 c -1.9,0 -3.4,1.7 -3.4,3.9 v 0.5 c 0,1.5 1.9,2.7 3.5,3.4 v 3.7 c 0,0 0,0 0,0 -1.2,1.1 -1.9,1.4 -2.3,1.4 -1.8,0.2 -2.3,-0.1 -2.9,-0.6 -0.7,-0.6 -1.2,-0.3 -1.5,-0.1 -0.5,0.4 -0.7,1.2 -0.5,1.6 0.3,0.5 0.8,1.1 1.3,1.4 1.1,0.5 2.3,0.8 3.6,0.7 1.9,-0.1 3.2,-1.1 3.8,-1.4 0.1,-0.1 0.2,-0.1 0.2,-0.1 v 0 0 c 0,0 0.1,0.1 0.2,0.1 0.6,0.4 1.9,1.3 3.8,1.4 0.2,0 0.4,0 0.6,0 1.1,0 2.1,-0.2 3,-0.7 0.6,-0.3 1.1,-0.8 1.3,-1.4 0.2,-0.4 0,-1.2 -0.5,-1.6 z"
   id="path29" />
	</g><path
   class="st0"
   d="m 298.21286,487.05434 h -0.20832 c -0.10416,0 0,0.20756 -0.10416,0.20756 l 0.31248,68.18553 c 0.10416,0 0.20832,0 0.31247,0 5.62459,0 18.01952,-9.13291 22.49836,-17.12422 9.06184,-16.29395 7.70777,-37.36193 7.70777,-37.36193 l -12.81156,-6.12321 c 0,0 -1.04159,-5.39672 -1.04159,-9.75561 -0.10416,-3.63241 -11.56166,1.97188 -16.66545,1.97188 z"
   id="path27-9"
   style="fill:#d1d3d4;stroke-width:1.03971"
   inkscape:export-filename="../../website/static/images/logo-title-2.png"
   inkscape:export-xdpi="96"
   inkscape:export-ydpi="96" /><path
   class="st1"
   d="m 298.00038,556.23781 c -5.9,0 -18.7,-8.2 -23.3,-16.3 -8.8,-15.3 -6.9,-36.5 -6.8,-37.4 v -0.5 l 0.3,-0.4 c 0.5,-0.8 13.3,-19.8 46,-18.5 l 1.9,0.1 v 10.4 c 10.2,2.9 13.8,7.3 14,7.5 l 0.3,0.4 0.1,0.5 c 0.1,0.8 2.4,19.1 -7.5,37.4 -5.6,10.1 -18.7,16.8 -25,16.8 z m -26.3,-52.8 c -0.2,3.3 -1.1,21.6 6.4,34.6 4.1,7.1 15.7,14.3 19.9,14.3 4.6,0 16.6,-5.7 21.5,-14.7 8.4,-15.4 7.5,-31.2 7.2,-34.4 -1.1,-1 -4.8,-4.1 -13,-6.2 l -1.5,-0.4 v -9.6 c -26.7,-0.4 -38.6,13.9 -40.5,16.4 z"
   id="path28-7"
   style="fill:#785fa9" /><circle
   class="st1"
   cx="285.20038"
   cy="516.43781"
   r="3.5999999"
   id="circle28-3"
   style="fill:#785fa9" /><circle
   class="st1"
   cx="311.00037"
   cy="516.43781"
   r="3.5999999"
   id="circle29-6"
   style="fill:#785fa9" /><path
   class="st1"
   d="m 306.40038,535.43781 c -0.2,-0.2 -0.7,-0.4 -1.5,0.1 -0.6,0.5 -1.1,0.7 -2.9,0.6 -0.4,0 -1.1,-0.3 -2.3,-1.4 0,0 0,0 0,0 v -3.7 c 1.6,-0.6 3.5,-1.9 3.5,-3.4 v -0.5 c 0,-2.1 -1.5,-3.9 -3.4,-3.9 h -3.6 c -1.9,0 -3.4,1.7 -3.4,3.9 v 0.5 c 0,1.5 1.9,2.7 3.5,3.4 v 3.7 c 0,0 0,0 0,0 -1.2,1.1 -1.9,1.4 -2.3,1.4 -1.8,0.2 -2.3,-0.1 -2.9,-0.6 -0.7,-0.6 -1.2,-0.3 -1.5,-0.1 -0.5,0.4 -0.7,1.2 -0.5,1.6 0.3,0.5 0.8,1.1 1.3,1.4 1.1,0.5 2.3,0.8 3.6,0.7 1.9,-0.1 3.2,-1.1 3.8,-1.4 0.1,-0.1 0.2,-0.1 0.2,-0.1 v 0 0 c 0,0 0.1,0.1 0.2,0.1 0.6,0.4 1.9,1.3 3.8,1.4 0.2,0 0.4,0 0.6,0 1.1,0 2.1,-0.2 3,-0.7 0.6,-0.3 1.1,-0.8 1.3,-1.4 0.2,-0.4 0,-1.2 -0.5,-1.6 z"
   id="path29-1"
   style="fill:#785fa9" /><text
   xml:space="preserve"
   id="text31"
   style="font-style:normal;font-variant:normal;font-weight:bold;font-stretch:normal;font-size:48px;line-height:1.25;font-family:'Droid Sans';-inkscape-font-specification:'Droid Sans, Bold';font-variant-ligatures:normal;font-variant-caps:normal;font-variant-numeric:normal;font-variant-east-asian:normal;white-space:pre;shape-inside:url(#rect31);fill:#785fa9;fill-opacity:1;stroke:none"><tspan
     x="352.86719"
     y="590.21785"
     id="tspan7"><tspan
       dx="0 27.890625 23.953125 30.09375 14.648438 30.09375 30.09375"
       id="tspan6">echinus</tspan></tspan></text><text
   xml:space="preserve"
   id="text42"
   style="font-style:normal;font-weight:normal;font-size:40px;line-height:1.25;font-family:sans-serif;white-space:pre;shape-inside:url(#rect42);fill:#000000;fill-opacity:1;stroke:none" /><text
   xml:space="preserve"
   style="font-style:normal;font-variant:normal;font-weight:normal;font-stretch:normal;font-size:10.6667px;line-height:1.25;font-family:Sans;-inkscape-font-specification:'Sans, Normal';font-variant-ligatures:normal;font-variant-caps:normal;font-variant-numeric:normal;font-variant-east-asian:normal;white-space:pre;inline-size:172.411;fill:#000000;fill-opacity:1;stroke:none"
   x="632.50555"
   y="443.78754"
   id="text43"
   transform="translate(-19.112532,84.198539)"><tspan
     x="632.50555"
     y="443.78754"
     id="tspan8">&lt;-- The font here is Cantarell </tspan><tspan
     x="632.50555"
     y="457.12092"
     id="tspan9">Normal with some manual </tspan><tspan
     x="632.50555"
     y="470.4543"
     id="tspan10">kerning
</tspan></text><text
   style="font-size:48px;line-height:1.25;font-family:Sans;-inkscape-font-specification:'Sans, Normal';white-space:pre;fill:#785fa9"
   x="226.22882"
   y="594.53461"
   id="text12">e</text><text
   style="font-size:48px;line-height:1.25;font-family:Sans;-inkscape-font-specification:'Sans, Normal';white-space:pre;fill:#785fa9"
   x="250.23331"
   y="594.53461"
   id="text11">c</text><text
   style="font-size:48px;line-height:1.25;font-family:Sans;-inkscape-font-specification:'Sans, Normal';white-space:pre;fill:#785fa9"
   x="270.20581"
   y="594.53461"
   id="text10">h</text><text
   style="font-size:48px;line-height:1.25;font-family:Sans;-inkscape-font-specification:'Sans, Normal';white-space:pre;fill:#785fa9"
   x="295.57535"
   y="594.53461"
   id="text9">i</text><text
   style="font-size:48px;line-height:1.25;font-family:Sans;-inkscape-font-specification:'Sans, Normal';white-space:pre;fill:#785fa9"
   x="304.27835"
   y="594.53461"
   id="text8">n</text><text
   style="font-size:48px;line-height:1.25;font-family:Sans;-inkscape-font-specification:'Sans, Normal';white-space:pre;fill:#785fa9"
   x="329.64789"
   y="594.53461"
   id="text7">u</text><text
   style="font-size:48px;line-height:1.25;font-family:Sans;-inkscape-font-specification:'Sans, Normal';white-space:pre;fill:#785fa9"
   x="355.63092"
   y="594.53461"
   id="text6">s</text>
</svg>
