<?xml version="1.0" encoding="UTF-8" standalone="no"?>
<!-- Generator: Adobe Illustrator 27.4.0, SVG Export Plug-In . SVG Version: 6.00 Build 0)  -->

<svg
   version="1.1"
   id="Layer_1"
   x="0px"
   y="0px"
   viewBox="0 0 792 612"
   style="enable-background:new 0 0 792 612;"
   xml:space="preserve"
   sodipodi:docname="ec-logo-final.svg"
   inkscape:version="1.4 (e7c3feb100, 2024-10-09)"
   xmlns:inkscape="http://www.inkscape.org/namespaces/inkscape"
   xmlns:sodipodi="http://sodipodi.sourceforge.net/DTD/sodipodi-0.dtd"
   xmlns="http://www.w3.org/2000/svg"
   xmlns:svg="http://www.w3.org/2000/svg"><defs
   id="defs30"><rect
   x="361.11111"
   y="498.14815"
   width="224.07407"
   height="70.987654"
   id="rect44" /><rect
   x="609.01639"
   y="436.06557"
   width="117.21311"
   height="49.180328"
   id="rect42" />
	
	

		
		
		
		
		
	<rect
   x="361.11111"
   y="498.14815"
   width="224.07407"
   height="70.987654"
   id="rect50" /></defs><sodipodi:namedview
   id="namedview30"
   pagecolor="#ffffff"
   bordercolor="#000000"
   borderopacity="0.25"
   inkscape:showpageshadow="2"
   inkscape:pageopacity="0.0"
   inkscape:pagecheckerboard="0"
   inkscape:deskcolor="#d1d1d1"
   inkscape:zoom="1.62"
   inkscape:cx="404.32099"
   inkscape:cy="308.33333"
   inkscape:window-width="2450"
   inkscape:window-height="1287"
   inkscape:window-x="26"
   inkscape:window-y="23"
   inkscape:window-maximized="0"
   inkscape:current-layer="Layer_1"
   inkscape:export-bgcolor="#ffffff00" />
<style
   type="text/css"
   id="style1">
	.st0{fill:#D1D3D4;}
	.st1{fill:#785FA9;}
	.st2{fill:#AB9BCB;}
	.st3{fill:#FFFFFF;}
</style>




<g
   id="g45"
   inkscape:export-filename="g45.png"
   inkscape:export-xdpi="1216.3456"
   inkscape:export-ydpi="1216.3456"><path
     class="st0"
     d="m 278.38962,163.38987 h -0.2 c -0.1,0 0,0.20575 -0.1,0.20575 l 0.3,67.59113 c 0.1,0 0.2,0 0.3,0 5.4,0 17.3,-9.0533 21.6,-16.97494 8.7,-16.15191 7.4,-37.03623 7.4,-37.03623 l -12.3,-6.06983 c 0,0 -1,-5.34968 -1,-9.67057 0,-3.70363 -11.1,1.95469 -16,1.95469 z"
     id="path1"
     style="stroke-width:1.01429" /><path
     class="st1"
     d="M278.4,232.5c-5.9,0-18.7-8.2-23.3-16.3c-8.8-15.3-6.9-36.5-6.8-37.4l0-0.5l0.3-0.4c0.5-0.8,13.3-19.8,46-18.5  l1.9,0.1v10.4c10.2,2.9,13.8,7.3,14,7.5l0.3,0.4l0.1,0.5c0.1,0.8,2.4,19.1-7.5,37.4C297.8,225.8,284.7,232.5,278.4,232.5z   M252.1,179.7c-0.2,3.3-1.1,21.6,6.4,34.6c4.1,7.1,15.7,14.3,19.9,14.3c4.6,0,16.6-5.7,21.5-14.7c8.4-15.4,7.5-31.2,7.2-34.4  c-1.1-1-4.8-4.1-13-6.2l-1.5-0.4v-9.6C265.8,163,254,177.2,252.1,179.7z"
     id="path2" /><circle
     class="st1"
     cx="265.6"
     cy="192.8"
     r="3.6"
     id="circle2" /><circle
     class="st1"
     cx="291.4"
     cy="192.8"
     r="3.6"
     id="circle3" /><path
     class="st1"
     d="M286.8,211.8c-0.2-0.2-0.7-0.4-1.5,0.1c-0.6,0.5-1.1,0.7-2.9,0.6c-0.4,0-1.1-0.3-2.3-1.4c0,0,0,0,0,0v-3.7  c1.6-0.6,3.5-1.9,3.5-3.4v-0.5c0-2.1-1.5-3.9-3.4-3.9h-3.7c-1.9,0-3.4,1.7-3.4,3.9v0.5c0,1.5,1.9,2.7,3.5,3.4v3.7c0,0,0,0,0,0  c-1.2,1.1-1.9,1.4-2.3,1.4c-1.8,0.2-2.3-0.1-2.9-0.6c-0.7-0.6-1.2-0.3-1.5-0.1c-0.5,0.4-0.7,1.2-0.5,1.6c0.3,0.5,0.8,1.1,1.3,1.4  c1.1,0.5,2.3,0.8,3.6,0.7c1.9-0.1,3.2-1.1,3.8-1.4c0.1-0.1,0.2-0.1,0.2-0.1l0,0l0,0c0,0,0.1,0.1,0.2,0.1c0.6,0.4,1.9,1.3,3.8,1.4  c0.2,0,0.4,0,0.6,0c1.1,0,2.1-0.2,3-0.7c0.6-0.3,1.1-0.8,1.3-1.4C287.4,213,287.2,212.1,286.8,211.8z"
     id="path3" /></g>


<g
   id="g50"
   transform="translate(-1.412448,-1.412448)"><rect
     x="372.89999"
     y="144.89999"
     class="st1"
     width="114.1"
     height="110.5"
     id="rect3" /><g
     id="g49"><path
       class="st2"
       d="m 429.74226,162.3296 h -0.20522 c -0.10261,0 0,0.20193 -0.10261,0.20193 l 0.30783,66.33145 c 0.10261,0 0.20522,0 0.30782,0 5.5409,0 17.64878,-6.15863 21.95837,-13.93263 8.92699,-15.8509 7.79829,-39.07196 7.79829,-39.07196 l -12.62093,-5.9567 c 0,0 -1.02609,-5.24998 -1.02609,-9.49035 -0.10261,-3.53364 -11.38961,1.91826 -16.41746,1.91826 z"
       id="path4"
       style="stroke-width:1.01781" /><g
       id="g8">
	<path
   class="st3"
   d="m 429.7,231.5 c -5.9,0 -18.7,-8.2 -23.3,-16.3 -8.8,-15.3 -6.9,-36.5 -6.8,-37.4 v -0.5 l 0.3,-0.4 c 0.5,-0.8 13.3,-19.8 46,-18.5 l 1.9,0.1 v 10.4 c 10.2,2.9 13.8,7.3 14,7.5 l 0.3,0.4 0.1,0.5 c 0.1,0.8 2.4,19.1 -7.5,37.4 -5.5,10.2 -18.7,16.8 -25,16.8 z m -26.2,-52.7 c -0.2,3.3 -1.1,21.6 6.4,34.6 4.1,7.1 15.7,14.3 19.9,14.3 4.6,0 16.6,-5.7 21.5,-14.7 8.3,-15.4 7.4,-31.2 7.2,-34.4 -1.1,-1 -4.8,-4.1 -13,-6.2 L 444,172 v -9.6 c -14.9,-0.2 -25,4.2 -30.9,8 -5.7,3.5 -8.8,7.2 -9.6,8.4 z"
   id="path5" />
	<path
   class="st3"
   d="m 417,188.2 c -2,0 -3.6,1.6 -3.6,3.6 0,2 1.6,3.6 3.6,3.6 2,0 3.6,-1.6 3.6,-3.6 0,-2 -1.6,-3.6 -3.6,-3.6 z"
   id="path6" />
	<path
   class="st3"
   d="m 442.7,188.2 c -2,0 -3.6,1.6 -3.6,3.6 0,2 1.6,3.6 3.6,3.6 2,0 3.6,-1.6 3.6,-3.6 0,-2 -1.6,-3.6 -3.6,-3.6 z"
   id="path7" />
	<path
   class="st3"
   d="m 438.1,210.8 c -0.2,-0.2 -0.7,-0.4 -1.5,0.1 -0.6,0.5 -1.1,0.7 -2.9,0.6 -0.4,0 -1.1,-0.3 -2.3,-1.4 0,0 0,0 0,0 v -3.7 c 1.6,-0.6 3.5,-1.9 3.5,-3.4 v -0.5 c 0,-2.1 -1.5,-3.9 -3.4,-3.9 h -3.7 c -1.9,0 -3.4,1.7 -3.4,3.9 v 0.5 c 0,1.5 1.9,2.7 3.5,3.4 v 3.7 c 0,0 0,0 0,0 -1.2,1.1 -1.9,1.4 -2.3,1.4 -1.8,0.2 -2.3,-0.1 -2.9,-0.6 -0.7,-0.6 -1.2,-0.3 -1.5,-0.1 -0.5,0.4 -0.7,1.2 -0.5,1.6 0.2,0.5 0.8,1.1 1.3,1.4 1.1,0.5 2.2,0.8 3.6,0.7 1.9,-0.1 3.2,-1.1 3.8,-1.4 0.1,-0.1 0.2,-0.1 0.2,-0.1 v 0 0 c 0,0 0.1,0.1 0.2,0.1 0.6,0.4 1.9,1.3 3.8,1.4 0.2,0 0.4,0 0.6,0 1.1,0 2.1,-0.2 3,-0.7 0.6,-0.3 1.1,-0.8 1.3,-1.4 0.3,-0.4 0.1,-1.3 -0.4,-1.6 z"
   id="path8" />
</g></g></g>
<g
   id="g47"><g
     id="g26">
		<path
   class="st1"
   d="m 344.5,400.5 1.8,2.9 c -1.4,1.3 -3,2.1 -4.4,2.6 -1,0.3 -2.2,0.4 -3.1,0.4 -1.8,0 -3.4,-0.4 -4.8,-1.1 -1.4,-0.7 -2.4,-1.7 -3.1,-3 -0.7,-1.3 -1.1,-2.7 -1.1,-4.4 0,-1.6 0.4,-3 1.2,-4.3 0.8,-1.3 1.9,-2.3 3.3,-3.1 1.4,-0.8 2.9,-1.1 4.5,-1.1 2.2,0 3.9,0.6 5.4,1.9 1.4,1.3 2.4,3 2.9,5.4 l -12.2,4.1 c 0.4,0.7 1,1.2 1.7,1.5 0.7,0.4 1.5,0.5 2.3,0.5 2.6,0 4.5,-1.1 5.6,-2.3 z m -9.2,-6.4 c -0.8,0.9 -1.3,2.1 -1.3,3.6 0,0.3 0,0.5 0,0.6 l 8.3,-3 c -0.3,-0.8 -0.8,-1.4 -1.4,-1.9 -0.6,-0.5 -1.4,-0.8 -2.4,-0.8 -1.3,0.1 -2.3,0.6 -3.2,1.5 z"
   id="path9" />
		<path
   class="st1"
   d="m 364.3,390.8 c 1,0.9 1.5,2 1.5,3.4 V 406 h -4.2 v -10.3 c 0,-0.8 -0.3,-1.5 -0.7,-2 -0.4,-0.5 -1.1,-0.7 -2,-0.8 -1.3,0 -2.4,0.6 -3.2,1.7 -0.8,1.1 -1.3,2.5 -1.3,4.3 v 7.1 h -4.2 v -15.9 h 3.8 l 0.3,2.8 c 0.6,-1.1 1.4,-2 2.5,-2.6 1.1,-0.6 2.3,-0.9 3.8,-0.9 1.5,0 2.7,0.5 3.7,1.4 z"
   id="path10" />
		<path
   class="st1"
   d="m 376.4,383.1 v 7 h 4.1 v 3.3 h -4.1 V 406 h -4.2 v -12.6 h -2.7 v -3.3 h 2.7 v -7 z"
   id="path11" />
		<path
   class="st1"
   d="m 409.6,391.5 c 0.8,-0.7 1.6,-1.2 2.4,-1.6 0.8,-0.4 1.5,-0.5 2,-0.5 l -0.2,4.2 c -1.2,-0.1 -2.2,0.1 -3.1,0.6 -0.9,0.5 -1.6,1.2 -2.1,2.1 -0.5,0.9 -0.8,1.8 -0.8,2.8 v 6.8 h -4.2 V 390 h 3.8 l 0.3,3.7 c 0.5,-0.8 1.1,-1.5 1.9,-2.2 z"
   id="path12" />
		<path
   class="st1"
   d="m 444.9,391.5 c 0.8,-0.7 1.6,-1.2 2.4,-1.6 0.8,-0.4 1.5,-0.5 2,-0.5 l -0.2,4.2 c -1.2,-0.1 -2.2,0.1 -3.1,0.6 -0.9,0.5 -1.6,1.2 -2.1,2.1 -0.5,0.9 -0.8,1.8 -0.8,2.8 v 6.8 h -4.2 V 390 h 3.8 l 0.3,3.7 c 0.6,-0.8 1.2,-1.5 1.9,-2.2 z"
   id="path13" />
		<path
   class="st1"
   d="m 454.3,382.8 c 0.5,-0.4 1.1,-0.7 1.7,-0.7 0.6,0 1.1,0.2 1.6,0.7 0.5,0.4 0.7,1 0.7,1.6 0,0.6 -0.2,1.2 -0.7,1.6 -0.5,0.4 -1,0.6 -1.6,0.6 -0.6,0 -1.2,-0.2 -1.7,-0.6 -0.5,-0.4 -0.8,-1 -0.8,-1.6 0,-0.6 0.3,-1.1 0.8,-1.6 z m 3.6,7.3 V 406 h -4.2 v -15.9 z"
   id="path14" />
		<path
   class="st1"
   d="m 465,405.7 c -1.1,-0.4 -2,-1.1 -2.7,-1.9 l 1.8,-2.4 c 1.3,1.3 2.7,2 4.1,2 0.8,0 1.4,-0.1 1.9,-0.4 0.5,-0.3 0.7,-0.7 0.7,-1.3 0,-0.6 -0.3,-1.1 -0.8,-1.4 -0.5,-0.3 -1.1,-0.5 -1.7,-0.7 -0.6,-0.2 -1,-0.3 -1.2,-0.4 -1.4,-0.4 -2.4,-1 -3.1,-1.9 -0.7,-0.8 -1,-1.8 -1,-2.9 0,-0.9 0.2,-1.7 0.7,-2.5 0.4,-0.8 1.1,-1.4 2,-1.9 0.9,-0.5 2,-0.7 3.2,-0.7 1.2,0 2.2,0.1 3.1,0.4 0.9,0.3 1.7,0.7 2.5,1.3 l -1.6,2.5 c -0.5,-0.4 -1,-0.8 -1.6,-1 -0.6,-0.3 -1.2,-0.4 -1.7,-0.4 -0.7,0 -1.2,0.2 -1.6,0.5 -0.4,0.3 -0.6,0.7 -0.6,1.2 0,0.6 0.2,1 0.6,1.3 0.5,0.3 1.2,0.6 2.2,0.9 0.4,0.1 0.7,0.2 0.8,0.3 1.3,0.4 2.2,1 2.9,1.7 0.7,0.7 1.1,1.6 1.1,2.8 0,1.6 -0.6,2.8 -1.7,3.9 -1.1,1 -2.7,1.6 -4.8,1.6 -1.3,0 -2.4,-0.2 -3.5,-0.6 z"
   id="path15" />
		<path
   class="st1"
   d="m 334.2,432.2 c -1,0.3 -2,0.5 -3.1,0.5 -1.8,0 -3.3,-0.3 -4.6,-1 -1.3,-0.7 -2.4,-1.6 -3.1,-2.9 -0.7,-1.3 -1.1,-2.7 -1.1,-4.5 0,-1.7 0.4,-3.1 1.2,-4.4 0.8,-1.3 1.8,-2.2 3.1,-2.9 1.3,-0.7 2.7,-1 4.2,-1 2.5,0 4.6,0.7 6.2,2 l -2.1,2.7 c -0.5,-0.4 -1,-0.7 -1.7,-1 -0.6,-0.3 -1.3,-0.4 -2,-0.4 -1.3,0 -2.4,0.5 -3.2,1.4 -0.9,0.9 -1.3,2.1 -1.3,3.5 0,1.4 0.5,2.6 1.4,3.5 0.9,0.9 2.1,1.4 3.6,1.4 1.3,0 2.3,-0.4 3.2,-1.1 l 2.1,2.6 c -1,0.8 -1.8,1.2 -2.8,1.6 z"
   id="path16" />
		<path
   class="st1"
   d="m 339.7,419.8 c 0.8,-1.3 1.8,-2.3 3.2,-3.1 1.4,-0.7 2.9,-1.1 4.6,-1.1 1.7,0 3.3,0.4 4.6,1.1 1.3,0.7 2.4,1.8 3.1,3 0.7,1.3 1.1,2.7 1.1,4.3 0,1.6 -0.4,3 -1.1,4.3 -0.7,1.3 -1.8,2.3 -3.1,3.1 -1.3,0.8 -2.9,1.1 -4.6,1.1 -1.7,0 -3.2,-0.3 -4.6,-1 -1.4,-0.7 -2.4,-1.7 -3.2,-3 -0.8,-1.3 -1.1,-2.8 -1.1,-4.5 -0.1,-1.4 0.3,-2.9 1.1,-4.2 z m 4.4,8 c 0.9,1 2,1.4 3.3,1.4 1.4,0 2.5,-0.5 3.3,-1.4 0.9,-1 1.3,-2.2 1.3,-3.6 0,-1.5 -0.4,-2.7 -1.3,-3.6 -0.9,-1 -2,-1.4 -3.3,-1.4 -1.3,0 -2.4,0.5 -3.3,1.5 -0.9,1 -1.3,2.2 -1.3,3.6 0,1.3 0.4,2.5 1.3,3.5 z"
   id="path17" />
		<path
   class="st1"
   d="m 373.8,417 c 1,0.9 1.5,2 1.5,3.4 v 11.8 h -4.2 V 422 c 0,-0.8 -0.3,-1.5 -0.7,-2 -0.4,-0.5 -1.1,-0.7 -2,-0.8 -1.3,0 -2.4,0.6 -3.2,1.7 -0.8,1.1 -1.3,2.5 -1.3,4.3 v 7.1 h -4.2 v -15.9 h 3.8 l 0.3,2.8 c 0.6,-1.1 1.4,-2 2.5,-2.6 1.1,-0.6 2.3,-0.9 3.8,-0.9 1.4,0 2.7,0.4 3.7,1.3 z"
   id="path18" />
		<path
   class="st1"
   d="m 434.6,393.5 c -0.7,-1.3 -1.6,-2.3 -2.8,-3 -1.2,-0.7 -2.5,-1.1 -4,-1.1 -1.3,0 -2.5,0.3 -3.5,0.8 -1.1,0.5 -2,1.2 -2.9,2 l -0.4,-2.4 h -3.6 v 22.5 c 0.1,0 0.2,0 0.3,0 1.6,0 2.9,0.4 3.9,1 V 404 c 0.6,0.7 1.4,1.3 2.4,1.7 1,0.4 2,0.6 3,0.6 1.7,0 3.1,-0.3 4.5,-1 1.3,-0.7 2.3,-1.7 3.1,-2.9 0.7,-1.3 1.1,-2.8 1.1,-4.5 -0.1,-1.6 -0.4,-3.1 -1.1,-4.4 z m -4,7.1 c -0.5,0.8 -1.1,1.3 -1.9,1.8 -0.8,0.4 -1.6,0.7 -2.6,0.7 -1.2,0 -2.1,-0.3 -3,-1 -0.8,-0.7 -1.4,-1.5 -1.6,-2.5 v -3.2 c 0.4,-1.1 1,-1.9 1.8,-2.5 0.8,-0.6 1.9,-0.9 3.1,-0.9 1.4,0 2.5,0.5 3.5,1.4 0.9,1 1.4,2.2 1.4,3.7 0,0.9 -0.2,1.8 -0.7,2.5 z"
   id="path19" />
		<path
   class="st1"
   d="m 386.8,409.4 v 7 h 4.1 v 3.3 h -4.1 v 12.6 h -4.2 v -12.6 h -2.7 v -3.3 h 2.7 v -7 z"
   id="path20" />
		<path
   class="st1"
   d="m 401,417.8 c 0.8,-0.7 1.6,-1.2 2.4,-1.6 0.8,-0.4 1.5,-0.5 2,-0.5 l -0.2,4.2 c -1.2,-0.1 -2.2,0.1 -3.1,0.6 -0.9,0.5 -1.6,1.2 -2.1,2.1 -0.5,0.9 -0.8,1.8 -0.8,2.8 v 6.8 H 395 v -15.9 h 3.8 l 0.3,3.7 c 0.5,-0.8 1.1,-1.6 1.9,-2.2 z"
   id="path21" />
		<path
   class="st1"
   d="m 426.3,416.4 v 15.9 h -4.2 V 430 c -0.6,0.7 -1.4,1.3 -2.3,1.9 -0.9,0.6 -2.1,0.8 -3.4,0.8 -1.5,0 -2.9,-0.3 -4.1,-1 -1.2,-0.6 -2.2,-1.6 -2.9,-2.8 -0.7,-1.3 -1.1,-2.8 -1.1,-4.5 0,-1.7 0.4,-3.2 1.1,-4.6 0.7,-1.3 1.7,-2.3 2.9,-3 1.2,-0.7 2.5,-1.1 4,-1.1 2.6,0 4.5,1 5.8,2.9 l 0.3,-2.1 h 3.9 z m -5.9,11.9 c 0.8,-0.6 1.3,-1.4 1.7,-2.5 v -3.5 c -0.3,-1 -0.9,-1.8 -1.7,-2.4 -0.9,-0.6 -1.9,-0.9 -3,-0.9 -1.3,0 -2.5,0.5 -3.4,1.4 -0.9,0.9 -1.4,2.1 -1.4,3.6 0,1 0.2,1.8 0.7,2.6 0.5,0.8 1.1,1.4 1.8,1.8 0.8,0.5 1.6,0.7 2.4,0.7 1.2,0.1 2.1,-0.2 2.9,-0.8 z"
   id="path22" />
		<path
   class="st1"
   d="m 442.3,432.2 c -1,0.3 -2,0.5 -3.1,0.5 -1.8,0 -3.3,-0.3 -4.6,-1 -1.3,-0.7 -2.4,-1.6 -3.1,-2.9 -0.7,-1.3 -1.1,-2.7 -1.1,-4.5 0,-1.7 0.4,-3.1 1.2,-4.4 0.8,-1.3 1.8,-2.2 3.1,-2.9 1.3,-0.7 2.7,-1 4.2,-1 2.5,0 4.6,0.7 6.2,2 l -2.1,2.7 c -0.5,-0.4 -1,-0.7 -1.7,-1 -0.6,-0.3 -1.3,-0.4 -2,-0.4 -1.3,0 -2.4,0.5 -3.2,1.4 -0.9,0.9 -1.3,2.1 -1.3,3.5 0,1.4 0.5,2.6 1.4,3.5 0.9,0.9 2.1,1.4 3.6,1.4 1.3,0 2.3,-0.4 3.2,-1.1 l 2.1,2.6 c -0.9,0.8 -1.7,1.2 -2.8,1.6 z"
   id="path23" />
		<path
   class="st1"
   d="m 454.2,409.4 v 7 h 4.1 v 3.3 h -4.1 v 12.6 H 450 v -12.6 h -2.7 v -3.3 h 2.7 v -7 z"
   id="path24" />
		<path
   class="st1"
   d="m 397.1,400.3 1.8,2.9 c -1.4,1.3 -3,2.1 -4.4,2.6 -1,0.3 -2.2,0.4 -3.1,0.4 -1.8,0 -3.4,-0.4 -4.8,-1.1 -1.3,-0.7 -2.4,-1.7 -3.1,-3 -0.7,-1.3 -1.1,-2.7 -1.1,-4.4 0,-1.6 0.4,-3 1.2,-4.3 0.8,-1.3 1.9,-2.3 3.3,-3.1 1.4,-0.8 2.9,-1.1 4.5,-1.1 2.2,0 3.9,0.6 5.4,1.9 1.4,1.3 2.4,3 2.9,5.4 l -12.2,4.1 c 0.4,0.7 1,1.2 1.7,1.5 0.7,0.4 1.5,0.5 2.3,0.5 2.6,0 4.4,-1.1 5.6,-2.3 z m -9.3,-6.4 c -0.8,0.9 -1.3,2.1 -1.3,3.6 0,0.3 0,0.5 0,0.6 l 8.3,-3 c -0.3,-0.8 -0.8,-1.4 -1.4,-1.9 -0.6,-0.5 -1.4,-0.8 -2.4,-0.8 -1.2,0.1 -2.3,0.6 -3.2,1.5 z"
   id="path25" />
		<path
   class="st1"
   d="m 492.4,400.3 1.8,2.9 c -1.4,1.3 -3,2.1 -4.4,2.6 -1,0.3 -2.2,0.4 -3.1,0.4 -1.8,0 -3.4,-0.4 -4.8,-1.1 -1.3,-0.7 -2.4,-1.7 -3.1,-3 -0.7,-1.3 -1.1,-2.7 -1.1,-4.4 0,-1.6 0.4,-3 1.2,-4.3 0.8,-1.3 1.9,-2.3 3.3,-3.1 1.4,-0.8 2.9,-1.1 4.5,-1.1 2.2,0 3.9,0.6 5.4,1.9 1.4,1.3 2.4,3 2.9,5.4 l -12.2,4.1 c 0.4,0.7 1,1.2 1.7,1.5 0.7,0.4 1.5,0.5 2.3,0.5 2.6,0 4.5,-1.1 5.6,-2.3 z m -9.2,-6.4 c -0.8,0.9 -1.3,2.1 -1.3,3.6 0,0.3 0,0.5 0,0.6 l 8.3,-3 c -0.3,-0.8 -0.8,-1.4 -1.4,-1.9 -0.6,-0.5 -1.4,-0.8 -2.4,-0.8 -1.3,0.1 -2.4,0.6 -3.2,1.5 z"
   id="path26" />
	</g><g
     id="g46"><path
       class="st0"
       d="m 285.88962,365.67886 h -0.2 c -0.1,0 0,0.20512 -0.1,0.20512 l 0.3,67.38202 c 0.1,0 0.2,0 0.3,0 5.4,0 17.3,-9.02529 21.6,-16.92242 8.7,-16.10195 7.4,-36.92166 7.4,-36.92166 l -12.3,-6.05105 c 0,0 -1,-5.33313 -1,-9.64066 -0.1,-3.5896 -11.1,1.94865 -16,1.94865 z"
       id="path27"
       style="stroke-width:1.01272" /><path
       class="st1"
       d="m 285.8,434.9 c -5.9,0 -18.7,-8.2 -23.3,-16.3 -8.8,-15.3 -6.9,-36.5 -6.8,-37.4 v -0.5 l 0.3,-0.4 c 0.5,-0.8 13.3,-19.8 46,-18.5 l 1.9,0.1 v 10.4 c 10.2,2.9 13.8,7.3 14,7.5 l 0.3,0.4 0.1,0.5 c 0.1,0.8 2.4,19.1 -7.5,37.4 -5.6,10.1 -18.7,16.8 -25,16.8 z m -26.3,-52.8 c -0.2,3.3 -1.1,21.6 6.4,34.6 4.1,7.1 15.7,14.3 19.9,14.3 4.6,0 16.6,-5.7 21.5,-14.7 8.4,-15.4 7.5,-31.2 7.2,-34.4 -1.1,-1 -4.8,-4.1 -13,-6.2 l -1.5,-0.4 v -9.6 c -26.7,-0.4 -38.6,13.9 -40.5,16.4 z"
       id="path28" /><circle
       class="st1"
       cx="273"
       cy="395.10001"
       r="3.5999999"
       id="circle28" /><circle
       class="st1"
       cx="298.79999"
       cy="395.10001"
       r="3.5999999"
       id="circle29" /><path
       class="st1"
       d="m 294.2,414.1 c -0.2,-0.2 -0.7,-0.4 -1.5,0.1 -0.6,0.5 -1.1,0.7 -2.9,0.6 -0.4,0 -1.1,-0.3 -2.3,-1.4 0,0 0,0 0,0 v -3.7 c 1.6,-0.6 3.5,-1.9 3.5,-3.4 v -0.5 c 0,-2.1 -1.5,-3.9 -3.4,-3.9 H 284 c -1.9,0 -3.4,1.7 -3.4,3.9 v 0.5 c 0,1.5 1.9,2.7 3.5,3.4 v 3.7 c 0,0 0,0 0,0 -1.2,1.1 -1.9,1.4 -2.3,1.4 -1.8,0.2 -2.3,-0.1 -2.9,-0.6 -0.7,-0.6 -1.2,-0.3 -1.5,-0.1 -0.5,0.4 -0.7,1.2 -0.5,1.6 0.3,0.5 0.8,1.1 1.3,1.4 1.1,0.5 2.3,0.8 3.6,0.7 1.9,-0.1 3.2,-1.1 3.8,-1.4 0.1,-0.1 0.2,-0.1 0.2,-0.1 v 0 0 c 0,0 0.1,0.1 0.2,0.1 0.6,0.4 1.9,1.3 3.8,1.4 0.2,0 0.4,0 0.6,0 1.1,0 2.1,-0.2 3,-0.7 0.6,-0.3 1.1,-0.8 1.3,-1.4 0.2,-0.4 0,-1.2 -0.5,-1.6 z"
       id="path29" /></g></g>
<g
   id="g48"
   inkscape:export-filename="g48.png"
   inkscape:export-xdpi="1216.3456"
   inkscape:export-ydpi="1216.3456"><path
     class="st0"
     d="m 617.02765,226.52905 0.99068,-0.41615 c 2.05758,-0.86431 1.16521,4.74175 1.26521,4.74175 l 1.03167,65.13586 -2.25589,-0.37453 c -5.32708,-0.88442 -16.46771,-8.26262 -20.76771,-16.18426 -8.7,-16.15191 -7.4,-37.03623 -7.4,-37.03623 l 9.71989,-8.15056 c 8.85304,-5.58686 15.70065,-6.99527 17.41615,-7.71588 z"
     id="path45"
     style="color:#000000;font-style:normal;font-variant:normal;font-weight:normal;font-stretch:normal;font-size:medium;line-height:normal;font-family:sans-serif;font-variant-ligatures:normal;font-variant-position:normal;font-variant-caps:normal;font-variant-numeric:normal;font-variant-alternates:normal;font-variant-east-asian:normal;font-feature-settings:normal;font-variation-settings:normal;text-indent:0;text-align:start;text-decoration-line:none;text-decoration-style:solid;text-decoration-color:#000000;letter-spacing:normal;word-spacing:normal;text-transform:none;writing-mode:lr-tb;direction:ltr;text-orientation:mixed;dominant-baseline:auto;baseline-shift:baseline;text-anchor:start;white-space:normal;shape-padding:0;shape-margin:0;inline-size:0;clip-rule:nonzero;display:inline;overflow:visible;visibility:visible;isolation:auto;mix-blend-mode:normal;color-interpolation:sRGB;color-interpolation-filters:linearRGB;solid-color:#000000;solid-opacity:1;vector-effect:none;fill:#ffffff;fill-opacity:1;fill-rule:nonzero;stroke:none;stroke-linecap:butt;stroke-linejoin:miter;stroke-miterlimit:4;stroke-dasharray:none;stroke-dashoffset:0;stroke-opacity:1;-inkscape-stroke:none;color-rendering:auto;image-rendering:auto;shape-rendering:auto;text-rendering:auto;enable-background:accumulate;stop-color:#000000;stop-opacity:1"
     sodipodi:nodetypes="ssccscccs" /><path
     class="st0"
     d="m 619.35576,227.21756 h -0.2 c -0.1,0 0,0.20575 -0.1,0.20575 l 0.3,67.59113 c 0.1,0 0.2,0 0.3,0 5.4,0 17.3,-9.0533 21.6,-16.97494 8.7,-16.15191 7.4,-37.03623 7.4,-37.03623 l -12.3,-6.06983 c 0,0 -1,-5.34968 -1,-9.67057 0,-3.70363 -11.1,1.95469 -16,1.95469 z"
     id="path1-3"
     style="fill:#d1d3d4;stroke-width:1.01429" /><path
     class="st1"
     d="m 619.36614,296.32769 c -5.9,0 -18.7,-8.2 -23.3,-16.3 -8.8,-15.3 -6.9,-36.5 -6.8,-37.4 v -0.5 l 0.3,-0.4 c 0.5,-0.8 13.3,-19.8 46,-18.5 l 1.9,0.1 v 10.4 c 10.2,2.9 13.8,7.3 14,7.5 l 0.3,0.4 0.1,0.5 c 0.1,0.8 2.4,19.1 -7.5,37.4 -5.6,10.1 -18.7,16.8 -25,16.8 z m -26.3,-52.8 c -0.2,3.3 -1.1,21.6 6.4,34.6 4.1,7.1 15.7,14.3 19.9,14.3 4.6,0 16.6,-5.7 21.5,-14.7 8.4,-15.4 7.5,-31.2 7.2,-34.4 -1.1,-1 -4.8,-4.1 -13,-6.2 l -1.5,-0.4 v -9.6 c -26.8,-0.3 -38.6,13.9 -40.5,16.4 z"
     id="path2-6"
     style="fill:#785fa9" /><circle
     class="st1"
     cx="606.56616"
     cy="256.62772"
     r="3.5999999"
     id="circle2-7"
     style="fill:#785fa9" /><circle
     class="st1"
     cx="632.36615"
     cy="256.62772"
     r="3.5999999"
     id="circle3-5"
     style="fill:#785fa9" /><path
     class="st1"
     d="m 627.76614,275.62769 c -0.2,-0.2 -0.7,-0.4 -1.5,0.1 -0.6,0.5 -1.1,0.7 -2.9,0.6 -0.4,0 -1.1,-0.3 -2.3,-1.4 0,0 0,0 0,0 v -3.7 c 1.6,-0.6 3.5,-1.9 3.5,-3.4 v -0.5 c 0,-2.1 -1.5,-3.9 -3.4,-3.9 h -3.7 c -1.9,0 -3.4,1.7 -3.4,3.9 v 0.5 c 0,1.5 1.9,2.7 3.5,3.4 v 3.7 c 0,0 0,0 0,0 -1.2,1.1 -1.9,1.4 -2.3,1.4 -1.8,0.2 -2.3,-0.1 -2.9,-0.6 -0.7,-0.6 -1.2,-0.3 -1.5,-0.1 -0.5,0.4 -0.7,1.2 -0.5,1.6 0.3,0.5 0.8,1.1 1.3,1.4 1.1,0.5 2.3,0.8 3.6,0.7 1.9,-0.1 3.2,-1.1 3.8,-1.4 0.1,-0.1 0.2,-0.1 0.2,-0.1 v 0 0 c 0,0 0.1,0.1 0.2,0.1 0.6,0.4 1.9,1.3 3.8,1.4 0.2,0 0.4,0 0.6,0 1.1,0 2.1,-0.2 3,-0.7 0.6,-0.3 1.1,-0.8 1.3,-1.4 0.2,-0.4 0,-1.3 -0.4,-1.6 z"
     id="path3-3"
     style="fill:#785fa9" /></g><g
   id="g2"><path
     id="path38"
     style="-inkscape-font-specification:'URW Gothic, Semi-Bold';fill:#785fa9;stroke-width:7.9"
     d="m 670.33008,303.10156 c -4.37334,0 -7.51953,3.27849 -7.51953,7.78516 0,4.45334 3.11945,7.68164 7.43945,7.68164 2.08001,0 3.49486,-0.64091 4.9082,-2.26758 v 1.91992 h 3.25196 v -14.77343 h -3.25196 v 1.97461 c -1.22667,-1.62667 -2.69478,-2.32032 -4.82812,-2.32032 z m 0.375,3.25196 c 2.53333,0 4.3457,1.89455 4.3457,4.58789 0,1.06666 -0.4264,2.29239 -1.0664,3.03906 -0.72001,0.88 -1.86657,1.33398 -3.22657,1.33398 -2.58667,0 -4.37304,-1.76098 -4.37304,-4.34765 0,-2.69333 1.78697,-4.61328 4.32031,-4.61328 z" /><path
     style="-inkscape-font-specification:'URW Gothic, Semi-Bold';fill:#785fa9;stroke-width:7.9"
     d="m 639.46322,318.22099 h 3.54667 v -7.28001 c 0,-1.46667 0.13334,-2.45334 0.37334,-3.06667 0.42666,-0.98667 1.30667,-1.52001 2.53333,-1.52001 0.93334,0 1.76001,0.34667 2.24001,0.93334 0.42666,0.56 0.61333,1.44 0.61333,2.82667 v 8.10668 h 3.54667 v -7.28001 c 0,-1.65334 0.13334,-2.48001 0.50667,-3.17334 0.45333,-0.90667 1.36,-1.41334 2.48,-1.41334 0.88,0 1.62667,0.32 2.10667,0.90667 0.48,0.56 0.66667,1.38667 0.66667,2.85334 v 8.10668 h 3.54667 v -8.53335 c 0,-1.78667 -0.32,-3.22667 -0.96,-4.24 -0.93334,-1.49334 -2.77334,-2.34667 -5.04001,-2.34667 -2.08,0 -3.52,0.69333 -4.72,2.29333 -1.01334,-1.62667 -2.29334,-2.29333 -4.34668,-2.29333 -1.73333,0 -2.8,0.48 -3.84,1.73333 v -1.38667 h -3.25334 z"
     id="path37" /><path
     style="-inkscape-font-specification:'URW Gothic, Semi-Bold';fill:#785fa9;stroke-width:7.9"
     d="m 631.00989,318.22099 h 3.54667 v -8.21335 c -0.08,-2.18667 1.04,-3.41334 3.17334,-3.49334 v -3.41333 h -0.26667 c -1.52,0 -2.26667,0.42666 -3.2,1.78667 v -1.44001 h -3.25334 z"
     id="path36" /><path
     id="path34"
     style="-inkscape-font-specification:'URW Gothic, Semi-Bold';fill:#785fa9;stroke-width:7.9"
     d="m 621.65625,303.10156 c -4.29333,0 -7.81445,3.49241 -7.81445,7.73242 0,4.26667 3.52179,7.73438 7.84179,7.73438 4.29334,0 7.86524,-3.46695 7.86524,-7.62695 0,-4.40001 -3.43924,-7.83985 -7.89258,-7.83985 z m 0.0273,3.25196 c 2.37334,0 4.29297,2.00046 4.29297,4.48046 0,2.48 -1.92091,4.48047 -4.26758,4.48047 -2.40001,0 -4.29296,-1.99987 -4.29296,-4.5332 0,-2.42667 1.9209,-4.42773 4.26757,-4.42773 z" /><path
     style="-inkscape-font-specification:'URW Gothic, Semi-Bold';fill:#785fa9;stroke-width:7.9"
     d="m 608.13551,318.22099 h 3.54667 V 306.6743 h 2 v -2.96 h -2 c 0.0267,-1.36 0.48,-1.78667 1.89334,-1.78667 h 0.32 v -3.36 c -0.42667,-0.0533 -0.61334,-0.0533 -0.88001,-0.0533 -1.54666,0 -2.8,0.56001 -3.70667,1.65334 -0.72,0.85333 -0.98666,1.70667 -1.17333,3.54667 h -1.28 v 2.96 h 1.28 z"
     id="path33" /><path
     style="-inkscape-font-specification:'URW Gothic, Semi-Bold';fill:#785fa9;stroke-width:7.9"
     d="m 592.38853,318.22099 h 3.54667 v -6.96001 c 0,-1.97334 0.13334,-2.82667 0.58667,-3.54667 0.56,-0.88001 1.46667,-1.36001 2.61334,-1.36001 0.93333,0 1.65333,0.32 2.13333,0.93334 0.48,0.64 0.69334,1.73333 0.69334,3.70667 v 7.22668 h 3.54667 v -7.92001 c 0,-2.64001 -0.26667,-3.92001 -1.06667,-5.06668 -0.96,-1.38667 -2.56,-2.13333 -4.61334,-2.13333 -1.70667,0 -2.85334,0.48 -4.16,1.76 v -1.41334 h -3.28001 z"
     id="path32" /><path
     id="path30"
     style="-inkscape-font-specification:'URW Gothic, Semi-Bold';display:inline;fill:#785fa9;stroke-width:7.9"
     inkscape:label="path30"
     d="m 583.39453,303.10156 c -4.29334,0 -7.8125,3.49241 -7.8125,7.73242 0,4.26667 3.51984,7.73438 7.83985,7.73438 4.29333,0 7.86523,-3.46695 7.86523,-7.62695 0,-4.40001 -3.43924,-7.83985 -7.89258,-7.83985 z m 0.0273,3.25196 c 2.37333,0 4.29296,2.00046 4.29296,4.48046 0,2.48 -1.9209,4.48047 -4.26757,4.48047 -2.40001,0 -4.29297,-1.99987 -4.29297,-4.5332 0,-2.42667 1.9209,-4.42773 4.26758,-4.42773 z" /><path
     style="-inkscape-font-specification:'URW Gothic, Semi-Bold';fill:#785fa9;stroke-width:7.9"
     d="m 570.91392,313.36765 c -0.88,1.36 -1.89334,1.94667 -3.36001,1.94667 -2.45333,0 -4.29334,-1.92001 -4.29334,-4.50668 0,-2.61333 1.73334,-4.45334 4.21334,-4.45334 1.6,0 2.72001,0.66667 3.44001,2.02667 h 4 c -0.50667,-1.49333 -0.98667,-2.26667 -2,-3.2 -1.44,-1.33334 -3.38667,-2.08 -5.44001,-2.08 -4.37334,0 -7.78667,3.38667 -7.78667,7.73334 0,4.29334 3.52,7.73334 7.89334,7.73334 3.46667,0 6.10667,-1.89333 7.33334,-5.2 z"
     id="text1" /></g><text
   xml:space="preserve"
   id="text42"
   style="font-style:normal;font-variant:normal;font-weight:600;font-stretch:normal;font-size:26.6667px;line-height:0.05;font-family:'URW Gothic';-inkscape-font-specification:'URW Gothic, Semi-Bold';font-variant-ligatures:normal;font-variant-caps:normal;font-variant-numeric:normal;font-variant-east-asian:normal;text-align:start;letter-spacing:0px;word-spacing:0px;writing-mode:lr-tb;direction:ltr;white-space:pre;shape-inside:url(#rect42);display:inline;fill:#785fa9;fill-opacity:1;fill-rule:nonzero;stroke-width:7.9" /><g
   id="g44"
   transform="translate(0,102.96943)"
   inkscape:export-filename="g44.png"
   inkscape:export-xdpi="970.32123"
   inkscape:export-ydpi="970.32123"><path
     id="path31"
     style="-inkscape-font-specification:'URW Gothic, Semi-Bold';fill:#785fa9;stroke-width:7.9"
     d="m 670.33008,303.10156 c -4.37334,0 -7.51953,3.27849 -7.51953,7.78516 0,4.45334 3.11945,7.68164 7.43945,7.68164 2.08001,0 3.49486,-0.64091 4.9082,-2.26758 v 1.91992 h 3.25196 v -14.77343 h -3.25196 v 1.97461 c -1.22667,-1.62667 -2.69478,-2.32032 -4.82812,-2.32032 z m 0.375,3.25196 c 2.53333,0 4.3457,1.89455 4.3457,4.58789 0,1.06666 -0.4264,2.29239 -1.0664,3.03906 -0.72001,0.88 -1.86657,1.33398 -3.22657,1.33398 -2.58667,0 -4.37304,-1.76098 -4.37304,-4.34765 0,-2.69333 1.78697,-4.61328 4.32031,-4.61328 z" /><path
     style="-inkscape-font-specification:'URW Gothic, Semi-Bold';fill:#785fa9;stroke-width:7.9"
     d="m 639.46322,318.22099 h 3.54667 v -7.28001 c 0,-1.46667 0.13334,-2.45334 0.37334,-3.06667 0.42666,-0.98667 1.30667,-1.52001 2.53333,-1.52001 0.93334,0 1.76001,0.34667 2.24001,0.93334 0.42666,0.56 0.61333,1.44 0.61333,2.82667 v 8.10668 h 3.54667 v -7.28001 c 0,-1.65334 0.13334,-2.48001 0.50667,-3.17334 0.45333,-0.90667 1.36,-1.41334 2.48,-1.41334 0.88,0 1.62667,0.32 2.10667,0.90667 0.48,0.56 0.66667,1.38667 0.66667,2.85334 v 8.10668 h 3.54667 v -8.53335 c 0,-1.78667 -0.32,-3.22667 -0.96,-4.24 -0.93334,-1.49334 -2.77334,-2.34667 -5.04001,-2.34667 -2.08,0 -3.52,0.69333 -4.72,2.29333 -1.01334,-1.62667 -2.29334,-2.29333 -4.34668,-2.29333 -1.73333,0 -2.8,0.48 -3.84,1.73333 v -1.38667 h -3.25334 z"
     id="path35" /><path
     style="-inkscape-font-specification:'URW Gothic, Semi-Bold';fill:#785fa9;stroke-width:7.9"
     d="m 631.00989,318.22099 h 3.54667 v -8.21335 c -0.08,-2.18667 1.04,-3.41334 3.17334,-3.49334 v -3.41333 h -0.26667 c -1.52,0 -2.26667,0.42666 -3.2,1.78667 v -1.44001 h -3.25334 z"
     id="path39" /><path
     id="path40"
     style="-inkscape-font-specification:'URW Gothic, Semi-Bold';fill:#785fa9;stroke-width:7.9"
     d="m 621.65625,303.10156 c -4.29333,0 -7.81445,3.49241 -7.81445,7.73242 0,4.26667 3.52179,7.73438 7.84179,7.73438 4.29334,0 7.86524,-3.46695 7.86524,-7.62695 0,-4.40001 -3.43924,-7.83985 -7.89258,-7.83985 z m 0.0273,3.25196 c 2.37334,0 4.29297,2.00046 4.29297,4.48046 0,2.48 -1.92091,4.48047 -4.26758,4.48047 -2.40001,0 -4.29296,-1.99987 -4.29296,-4.5332 0,-2.42667 1.9209,-4.42773 4.26757,-4.42773 z" /><path
     style="-inkscape-font-specification:'URW Gothic, Semi-Bold';fill:#785fa9;stroke-width:7.9"
     d="m 608.13551,318.22099 h 3.54667 V 306.6743 h 2 v -2.96 h -2 c 0.0267,-1.36 0.48,-1.78667 1.89334,-1.78667 h 0.32 v -3.36 c -0.42667,-0.0533 -0.61334,-0.0533 -0.88001,-0.0533 -1.54666,0 -2.8,0.56001 -3.70667,1.65334 -0.72,0.85333 -0.98666,1.70667 -1.17333,3.54667 h -1.28 v 2.96 h 1.28 z"
     id="path41" /><path
     style="-inkscape-font-specification:'URW Gothic, Semi-Bold';fill:#785fa9;stroke-width:7.9"
     d="m 592.38853,318.22099 h 3.54667 v -6.96001 c 0,-1.97334 0.13334,-2.82667 0.58667,-3.54667 0.56,-0.88001 1.46667,-1.36001 2.61334,-1.36001 0.93333,0 1.65333,0.32 2.13333,0.93334 0.48,0.64 0.69334,1.73333 0.69334,3.70667 v 7.22668 h 3.54667 v -7.92001 c 0,-2.64001 -0.26667,-3.92001 -1.06667,-5.06668 -0.96,-1.38667 -2.56,-2.13333 -4.61334,-2.13333 -1.70667,0 -2.85334,0.48 -4.16,1.76 v -1.41334 h -3.28001 z"
     id="path42" /><path
     id="path43"
     style="-inkscape-font-specification:'URW Gothic, Semi-Bold';display:inline;fill:#785fa9;stroke-width:7.9"
     inkscape:label="path30"
     d="m 583.39453,303.10156 c -4.29334,0 -7.8125,3.49241 -7.8125,7.73242 0,4.26667 3.51984,7.73438 7.83985,7.73438 4.29333,0 7.86523,-3.46695 7.86523,-7.62695 0,-4.40001 -3.43924,-7.83985 -7.89258,-7.83985 z m 0.0273,3.25196 c 2.37333,0 4.29296,2.00046 4.29296,4.48046 0,2.48 -1.9209,4.48047 -4.26757,4.48047 -2.40001,0 -4.29297,-1.99987 -4.29297,-4.5332 0,-2.42667 1.9209,-4.42773 4.26758,-4.42773 z" /><path
     style="-inkscape-font-specification:'URW Gothic, Semi-Bold';fill:#785fa9;stroke-width:7.9"
     d="m 570.91392,313.36765 c -0.88,1.36 -1.89334,1.94667 -3.36001,1.94667 -2.45333,0 -4.29334,-1.92001 -4.29334,-4.50668 0,-2.61333 1.73334,-4.45334 4.21334,-4.45334 1.6,0 2.72001,0.66667 3.44001,2.02667 h 4 c -0.50667,-1.49333 -0.98667,-2.26667 -2,-3.2 -1.44,-1.33334 -3.38667,-2.08 -5.44001,-2.08 -4.37334,0 -7.78667,3.38667 -7.78667,7.73334 0,4.29334 3.52,7.73334 7.89334,7.73334 3.46667,0 6.10667,-1.89333 7.33334,-5.2 z"
     id="path44" /></g><text
   xml:space="preserve"
   id="text44"
   style="font-style:normal;font-variant:normal;font-weight:normal;font-stretch:normal;font-size:26.6667px;line-height:0.05;font-family:'URW Gothic';-inkscape-font-specification:'URW Gothic, Normal';font-variant-ligatures:normal;font-variant-caps:normal;font-variant-numeric:normal;font-variant-east-asian:normal;text-align:start;letter-spacing:0px;word-spacing:0px;writing-mode:lr-tb;direction:ltr;white-space:pre;shape-inside:url(#rect44);fill:#785fa9;fill-opacity:1;stroke-width:7.9"
   transform="translate(-308.02469,17.901235)"><tspan
     x="361.11133"
     y="505.18845"
     id="tspan3">conforma</tspan></text><text
   xml:space="preserve"
   id="text50"
   style="font-style:normal;font-variant:normal;font-weight:normal;font-stretch:normal;font-size:26.6667px;line-height:0.05;font-family:Sans;-inkscape-font-specification:'Sans, @wght=600';font-variant-ligatures:normal;font-variant-caps:normal;font-variant-numeric:normal;font-variant-east-asian:normal;font-variation-settings:'wght' 600;text-align:start;letter-spacing:0px;word-spacing:0px;writing-mode:lr-tb;direction:ltr;white-space:pre;shape-inside:url(#rect50);fill:#785fa9;fill-opacity:1;stroke-width:7.9"
   transform="translate(-308.64197,56.17284)"><tspan
     x="361.11133"
     y="506.41179"
     id="tspan4">conforma</tspan></text></svg>
