<?xml version="1.0" standalone="no"?>
<!DOCTYPE svg PUBLIC "-//W3C//DTD SVG 20010904//EN"
 "http://www.w3.org/TR/2001/REC-SVG-20010904/DTD/svg10.dtd">
<svg version="1.0" xmlns="http://www.w3.org/2000/svg"
 width="300.000000pt" height="300.000000pt" viewBox="0 0 300.000000 300.000000"
 preserveAspectRatio="xMidYMid meet">
<metadata>
Created by potrace 1.14, written by Peter Selinger 2001-2017
</metadata>
<g transform="translate(0.000000,300.000000) scale(0.100000,-0.100000)"
fill="#000000" stroke="none">
<path d="M1782 2989 c-435 -30 -850 -163 -1162 -372 -149 -100 -313 -245 -385
-341 l-30 -39 1 -246 c0 -253 10 -378 45 -586 57 -340 176 -662 308 -837 64
-84 215 -228 326 -310 110 -82 273 -176 380 -220 108 -43 212 -45 330 -4 297
102 588 311 747 536 119 169 256 502 324 789 51 216 66 341 71 619 l6 263 -41
37 c-91 84 -269 172 -493 243 l-129 41 0 219 0 219 -87 -1 c-49 -1 -143 -6
-211 -10z m128 -374 c0 -107 2 -195 3 -195 22 0 362 -107 424 -133 97 -41 205
-100 223 -122 17 -20 7 -354 -14 -501 -46 -312 -128 -579 -257 -837 -66 -131
-97 -175 -183 -266 -151 -157 -388 -305 -580 -362 -93 -28 -144 -22 -251 29
-207 99 -447 285 -562 435 -136 176 -251 512 -298 870 -21 167 -38 470 -30
567 l7 85 82 81 c238 237 575 411 952 490 145 30 309 51 412 53 l72 1 0 -195z"/>
<path d="M855 1856 c-17 -7 -45 -30 -64 -51 -32 -36 -33 -41 -29 -103 4 -60 7
-67 44 -102 53 -49 105 -59 167 -32 63 28 92 73 92 142 0 68 -29 114 -89 141
-48 22 -80 23 -121 5z"/>
<path d="M1983 1849 c-117 -58 -116 -222 1 -278 54 -27 81 -26 136 2 48 24 90
88 90 137 0 49 -42 113 -90 138 -55 27 -83 28 -137 1z"/>
<path d="M1323 1380 c-43 -26 -73 -87 -73 -150 0 -43 5 -55 35 -88 19 -21 52
-47 75 -57 l40 -18 0 -83 c0 -79 -1 -83 -30 -108 -29 -24 -86 -46 -120 -46 -8
0 -39 12 -68 27 -61 31 -81 26 -96 -26 -8 -28 -6 -35 19 -61 66 -69 203 -79
316 -23 l63 32 27 -20 c90 -64 243 -65 327 -3 36 28 42 65 16 102 -19 27 -40
28 -79 2 -21 -14 -47 -20 -86 -20 -46 0 -63 5 -97 30 l-42 30 0 80 0 80 40 20
c56 29 108 84 115 123 10 52 -12 116 -55 159 l-38 38 -128 0 c-110 0 -134 -3
-161 -20z"/>
</g>
</svg>
