<svg version="1.1" id="Layer_1" x="0" y="0" xml:space="preserve" width="800" height="927" xmlns="http://www.w3.org/2000/svg"><style type="text/css" id="style2">.st1{fill:#785fa9}</style><g id="g76" transform="matrix(12.67027 0 0 12.6702 -3236.75 -4583.273)"><path d="M286 365.6h-.2c-.1 0 0 .2-.1.2l.3 65.7h.3c5.4 0 17.988-7.545 21.6-16.5 8.7-15.7 7.4-36 7.4-36l-12.3-5.9s-1-5.2-1-9.4c-.1-3.5-11.1 1.9-16 1.9z" id="path66" style="fill:#ab9bcb;fill-opacity:1"/><path class="st1" d="M285.8 434.9c-5.9 0-18.7-8.2-23.3-16.3-8.8-15.3-6.9-36.5-6.8-37.4v-.5l.3-.4c.5-.8 13.3-19.8 46-18.5l1.9.1v10.4c10.2 2.9 13.8 7.3 14 7.5l.3.4.1.5c.1.8 2.4 19.1-7.5 37.4-5.6 10.1-18.7 16.8-25 16.8zm-26.3-52.8c-.2 3.3-1.1 21.6 6.4 34.6 4.1 7.1 15.7 14.3 19.9 14.3 4.6 0 16.6-5.7 21.5-14.7 8.4-15.4 7.5-31.2 7.2-34.4-1.1-1-4.8-4.1-13-6.2l-1.5-.4v-9.6c-26.7-.4-38.6 13.9-40.5 16.4z" id="path68" style="fill:#fffff9;fill-opacity:1"/><circle class="st1" cx="273" cy="395.1" r="3.6" id="circle70" style="fill:#fff;fill-opacity:1"/><circle class="st1" cx="298.8" cy="395.1" r="3.6" id="circle72" style="fill:#fff;fill-opacity:1"/><path class="st1" d="M294.2 414.1c-.2-.2-.7-.4-1.5.1-.6.5-1.1.7-2.9.6-.4 0-1.1-.3-2.3-1.4v-3.7c1.6-.6 3.5-1.9 3.5-3.4v-.5c0-2.1-1.5-3.9-3.4-3.9H284c-1.9 0-3.4 1.7-3.4 3.9v.5c0 1.5 1.9 2.7 3.5 3.4v3.7c-1.2 1.1-1.9 1.4-2.3 1.4-1.8.2-2.3-.1-2.9-.6-.7-.6-1.2-.3-1.5-.1-.5.4-.7 1.2-.5 1.6.3.5.8 1.1 1.3 1.4 1.1.5 2.3.8 3.6.7 1.9-.1 3.2-1.1 3.8-1.4.1-.1.2-.1.2-.1s.1.1.2.1c.6.4 1.9 1.3 3.8 1.4h.6c1.1 0 2.1-.2 3-.7.6-.3 1.1-.8 1.3-1.4.2-.4 0-1.2-.5-1.6z" id="path74" style="fill:#fff;fill-opacity:1"/></g></svg>